<?xml version="1.0" encoding="UTF-8"?><svg id="Capa_2" xmlns="http://www.w3.org/2000/svg" viewBox="0 0 436.44 364.12"><defs><style>.cls-1{fill:none;stroke:#fff;stroke-dasharray:12;stroke-width: 1px;stroke-miterlimit:10;}.cls-2{fill:#fff;}</style></defs><g id="Capa_1-2"><g><polyline class="cls-1" points="420.36 242.76 420.36 .5 .5 .5 .5 363.62 420.36 363.62 420.36 281.72"/><g><path class="cls-2" d="M428.34,241.72c.56,1.26,1.01,2.56,.77,3.96-.1,.58-.35,1.14-.57,1.69-2.56,6.2-5.14,12.4-7.7,18.6-.08,.2-.19,.27-.41,.3-.46,.04-.93,.1-1.37,.24-1.73,.57-2.71,1.88-3.36,3.5-.39,.98-.38,2.01-.53,3.03-.33,2.33-1.63,3.95-3.86,4.69-2.24,.75-4.28,.24-5.95-1.43-2.12-2.13-2.17-5.62-.18-7.83,2.05-2.28,5.48-2.57,7.89-.66,.29,.23,.55,.49,.84,.77,4.56-9.4,9.1-18.78,13.7-28.26,.27,.53,.53,.96,.73,1.42Zm-15.13,30.59c.01-2.04-1.66-3.75-3.7-3.76-2.04-.01-3.74,1.66-3.75,3.71-.01,2.05,1.65,3.73,3.7,3.75,2.06,.01,3.74-1.64,3.75-3.7Zm8.12-11.06c0-.61-.53-1.15-1.15-1.15-.62,0-1.15,.53-1.15,1.14,0,.61,.54,1.15,1.15,1.15,.61,0,1.15-.54,1.15-1.15Z"/><path class="cls-2" d="M426.64,268.39c1.44-1.38,3.15-1.92,5.11-1.56,3.23,.58,5.27,3.73,4.54,6.96-.71,3.14-3.97,5.09-7.1,4.24-2.54-.69-4.24-2.96-4.27-5.6-.02-1.92-.69-3.61-2.1-4.94-.3-.28-.66-.5-1-.76,.57-1.31,1.14-2.62,1.74-4,.94,2.01,1.84,3.97,2.8,6.03,.12-.16,.18-.28,.27-.37Zm7.78,4.12c.02-2.04-1.65-3.75-3.69-3.77-2.04-.02-3.75,1.65-3.76,3.69-.02,2.05,1.63,3.74,3.69,3.76,2.05,.02,3.75-1.64,3.77-3.68Z"/><path class="cls-2" d="M413.1,240.2c-.98,1.6-1.82,3.16-1.66,5.02,.05,.59,.28,1.18,.5,1.74,1.6,4.07,3.22,8.14,4.83,12.2,.05,.12,.1,.24,.17,.4,.87-1.79,1.72-3.53,2.55-5.27,.05-.11,0-.3-.06-.42-1.59-3.45-3.19-6.9-4.79-10.35-.5-1.08-1.01-2.17-1.54-3.33Z"/></g></g></g></svg>