<?xml version="1.0" encoding="UTF-8"?><svg id="Capa_2" xmlns="http://www.w3.org/2000/svg" xmlns:xlink="http://www.w3.org/1999/xlink" viewBox="0 0 72.8 370.54"><defs><style>.cls-1{stroke:url(#Nueva_muestra_de_degradado_1-2);}.cls-1,.cls-2{fill:none;stroke-dasharray: 12;stroke-miterlimit:10;}.cls-3{fill:url(#Nueva_muestra_de_degradado_1-5);}.cls-4{fill:url(#Nueva_muestra_de_degradado_1-4);}.cls-5{fill:url(#Nueva_muestra_de_degradado_1-3);}.cls-2{stroke:url(#Nueva_muestra_de_degradado_1);}</style><radialGradient id="Nueva_muestra_de_degradado_1" cx="44.26" cy="-4147.36" fx="44.26" fy="-4147.36" r="21.96" gradientTransform="translate(0 -4135.11) scale(1 -1)" gradientUnits="userSpaceOnUse"><stop offset="0" stop-color="#c8122a"/><stop offset="1" stop-color="#a51a2d"/></radialGradient><radialGradient id="Nueva_muestra_de_degradado_1-2" cy="-4351.93" fy="-4351.93" r="110.55" xlink:href="#Nueva_muestra_de_degradado_1"/><radialGradient id="Nueva_muestra_de_degradado_1-3" cx="19.83" cy="-4178.5" fx="19.83" fy="-4178.5" r="15.97" xlink:href="#Nueva_muestra_de_degradado_1"/><radialGradient id="Nueva_muestra_de_degradado_1-4" cx="7.25" cy="-4167.3" fx="7.25" fy="-4167.3" r="7.47" xlink:href="#Nueva_muestra_de_degradado_1"/><radialGradient id="Nueva_muestra_de_degradado_1-5" cx="20.81" cy="-4187.72" fx="20.81" fy="-4187.72" r="7.36" xlink:href="#Nueva_muestra_de_degradado_1"/></defs><g id="Capa_1-2"><g><polyline class="cls-2" points="72.8 .5 16.22 .5 16.22 24.51"/><polyline class="cls-1" points="16.22 63.12 16.22 370.04 72.8 370.04"/><g><path class="cls-5" d="M8.03,60.71c-.56-1.25-1-2.54-.77-3.93,.1-.57,.34-1.13,.57-1.68,2.54-6.15,5.1-12.3,7.64-18.45,.08-.2,.18-.27,.41-.29,.46-.04,.93-.1,1.36-.24,1.71-.57,2.69-1.86,3.33-3.47,.38-.97,.38-1.99,.52-3,.33-2.31,1.62-3.92,3.83-4.65,2.22-.74,4.25-.24,5.9,1.42,2.1,2.11,2.15,5.58,.17,7.77-2.03,2.26-5.43,2.55-7.82,.66-.29-.23-.54-.49-.84-.76-4.52,9.32-9.03,18.63-13.59,28.03-.27-.52-.52-.95-.72-1.41Zm15.01-30.35c-.01,2.03,1.65,3.72,3.67,3.73,2.03,.01,3.71-1.65,3.72-3.68,.01-2.03-1.64-3.7-3.67-3.72-2.04-.01-3.71,1.63-3.72,3.67Zm-8.05,10.97c0,.61,.53,1.14,1.14,1.14,.61,0,1.14-.52,1.15-1.13,0-.61-.53-1.14-1.14-1.15-.61,0-1.14,.53-1.15,1.14Z"/><path class="cls-4" d="M9.72,34.26c-1.43,1.37-3.12,1.9-5.07,1.55-3.21-.58-5.23-3.7-4.5-6.9,.7-3.12,3.94-5.05,7.04-4.21,2.52,.69,4.21,2.94,4.23,5.56,.02,1.91,.68,3.58,2.09,4.9,.3,.28,.66,.5,.99,.75-.57,1.3-1.13,2.6-1.73,3.96-.93-2-1.83-3.94-2.78-5.98-.12,.16-.18,.28-.27,.37Zm-7.72-4.08c-.02,2.03,1.63,3.72,3.66,3.74,2.02,.02,3.72-1.64,3.73-3.66,.02-2.04-1.62-3.71-3.66-3.73-2.03-.02-3.72,1.62-3.74,3.65Z"/><path class="cls-3" d="M23.16,62.22c.97-1.58,1.8-3.13,1.65-4.98-.05-.59-.28-1.17-.5-1.73-1.59-4.04-3.19-8.07-4.79-12.11-.05-.12-.1-.23-.17-.4-.86,1.78-1.71,3.5-2.53,5.23-.05,.11,0,.29,.06,.42,1.58,3.42,3.17,6.85,4.76,10.27,.5,1.07,1,2.15,1.53,3.3Z"/></g></g></g></svg>