<?xml version="1.0" encoding="UTF-8"?><svg id="Capa_2" xmlns="http://www.w3.org/2000/svg" viewBox="0 0 56.5 890.3"><defs><style>.cls-1{fill:none;stroke:#fff;stroke-dasharray:12;stroke-miterlimit:10;}.cls-2{fill:#fff;}</style></defs><g id="Capa_1-2"><g><polyline class="cls-1" points="56.5 889.8 16.22 889.8 16.22 865.79"/><line class="cls-1" x1="16.22" y1="827.18" x2="16.22"/><g><path class="cls-2" d="M8.76,828.18c4.56,9.4,9.07,18.71,13.59,28.03,.3-.27,.55-.53,.84-.76,2.39-1.89,5.79-1.6,7.82,.66,1.97,2.19,1.93,5.66-.17,7.77-1.65,1.66-3.68,2.16-5.9,1.42-2.21-.74-3.5-2.34-3.83-4.65-.14-1.01-.14-2.03-.52-3-.64-1.61-1.62-2.91-3.33-3.47-.43-.14-.9-.2-1.36-.24-.23-.02-.33-.09-.41-.29-2.54-6.15-5.1-12.3-7.64-18.45-.23-.55-.47-1.1-.57-1.68-.23-1.39,.21-2.68,.77-3.93,.2-.45,.45-.88,.72-1.41Zm18.01,35.42c2.03-.01,3.69-1.69,3.67-3.72-.01-2.03-1.7-3.69-3.72-3.68-2.02,.01-3.69,1.7-3.67,3.73,.01,2.04,1.68,3.68,3.72,3.67Zm-10.63-13.5c.6,0,1.14-.54,1.14-1.15,0-.61-.53-1.13-1.15-1.13-.61,0-1.14,.53-1.14,1.14,0,.6,.54,1.14,1.15,1.14Z"/><path class="cls-2" d="M9.99,856.41c.95-2.05,1.85-3.99,2.78-5.98,.59,1.36,1.16,2.66,1.73,3.96-.34,.25-.7,.47-.99,.75-1.41,1.33-2.07,2.99-2.09,4.9-.02,2.62-1.71,4.87-4.23,5.56-3.1,.84-6.34-1.09-7.04-4.21-.72-3.2,1.3-6.32,4.5-6.9,1.94-.35,3.64,.18,5.07,1.55,.09,.09,.15,.21,.27,.37Zm-4.25,7.37c2.04-.02,3.68-1.69,3.66-3.73-.02-2.02-1.71-3.69-3.73-3.66-2.03,.02-3.68,1.71-3.66,3.74,.02,2.03,1.7,3.68,3.74,3.65Z"/><path class="cls-2" d="M23.16,828.08c.97,1.58,1.8,3.13,1.65,4.98-.05,.59-.28,1.17-.5,1.73-1.59,4.04-3.19,8.07-4.79,12.11-.05,.12-.1,.23-.17,.4-.86-1.78-1.71-3.5-2.53-5.23-.05-.11,0-.29,.06-.42,1.58-3.42,3.17-6.85,4.76-10.27,.5-1.07,1-2.15,1.53-3.3Z"/></g></g></g></svg>