<?xml version="1.0" encoding="UTF-8"?><svg id="Capa_2" xmlns="http://www.w3.org/2000/svg" xmlns:xlink="http://www.w3.org/1999/xlink" viewBox="0 0 522 184.95"><defs><style>.cls-1{fill:url(#Nueva_muestra_de_degradado_1-7);}.cls-2{fill:url(#Nueva_muestra_de_degradado_1-8);}.cls-3{fill:url(#Nueva_muestra_de_degradado_1-9);}.cls-4{fill:url(#Nueva_muestra_de_degradado_1-6);}.cls-5{fill:url(#Nueva_muestra_de_degradado_1-5);}.cls-6{fill:url(#Nueva_muestra_de_degradado_1-4);}.cls-7{fill:url(#Nueva_muestra_de_degradado_1-2);}.cls-8{fill:url(#Nueva_muestra_de_degradado_1-3);}.cls-9{fill:url(#Nueva_muestra_de_degradado_1-19);}.cls-10{fill:url(#Nueva_muestra_de_degradado_1-18);}.cls-11{fill:url(#Nueva_muestra_de_degradado_1-15);}.cls-12{fill:url(#Nueva_muestra_de_degradado_1-12);}.cls-13{fill:url(#Nueva_muestra_de_degradado_1-13);}.cls-14{fill:url(#Nueva_muestra_de_degradado_1-10);}.cls-15{fill:url(#Nueva_muestra_de_degradado_1-11);}.cls-16{fill:url(#Nueva_muestra_de_degradado_1-14);}.cls-17{fill:url(#Nueva_muestra_de_degradado_1-16);}.cls-18{fill:url(#Nueva_muestra_de_degradado_1-17);}.cls-19{fill:url(#Nueva_muestra_de_degradado_1-29);}.cls-20{fill:url(#Nueva_muestra_de_degradado_1-22);}.cls-21{fill:url(#Nueva_muestra_de_degradado_1-20);}.cls-22{fill:url(#Nueva_muestra_de_degradado_1-26);}.cls-23{fill:url(#Nueva_muestra_de_degradado_1-23);}.cls-24{fill:url(#Nueva_muestra_de_degradado_1-27);}.cls-25{fill:url(#Nueva_muestra_de_degradado_1-28);}.cls-26{fill:url(#Nueva_muestra_de_degradado_1-25);}.cls-27{fill:url(#Nueva_muestra_de_degradado_1-21);}.cls-28{fill:url(#Nueva_muestra_de_degradado_1-24);}.cls-29{fill:url(#Nueva_muestra_de_degradado_1-38);}.cls-30{fill:url(#Nueva_muestra_de_degradado_1-37);}.cls-31{fill:url(#Nueva_muestra_de_degradado_1-36);}.cls-32{fill:url(#Nueva_muestra_de_degradado_1-39);}.cls-33{fill:url(#Nueva_muestra_de_degradado_1-30);}.cls-34{fill:url(#Nueva_muestra_de_degradado_1-35);}.cls-35{fill:url(#Nueva_muestra_de_degradado_1-31);}.cls-36{fill:url(#Nueva_muestra_de_degradado_1-32);}.cls-37{fill:url(#Nueva_muestra_de_degradado_1-33);}.cls-38{fill:url(#Nueva_muestra_de_degradado_1-34);}.cls-39{fill:url(#Nueva_muestra_de_degradado_1);}</style><radialGradient id="Nueva_muestra_de_degradado_1" cx="-12.25" cy="-126.83" fx="-12.25" fy="-126.83" r="732.85" gradientUnits="userSpaceOnUse"><stop offset="0" stop-color="#ca122a"/><stop offset="1" stop-color="#a71a2d"/></radialGradient><radialGradient id="Nueva_muestra_de_degradado_1-2" cx="-12.25" cy="-126.83" fx="-12.25" fy="-126.83" r="732.85" xlink:href="#Nueva_muestra_de_degradado_1"/><radialGradient id="Nueva_muestra_de_degradado_1-3" cx="-12.25" cy="-126.83" fx="-12.25" fy="-126.83" r="732.85" xlink:href="#Nueva_muestra_de_degradado_1"/><radialGradient id="Nueva_muestra_de_degradado_1-4" cx="-12.25" cy="-126.83" fx="-12.25" fy="-126.83" r="732.85" xlink:href="#Nueva_muestra_de_degradado_1"/><radialGradient id="Nueva_muestra_de_degradado_1-5" cx="-12.25" cy="-126.83" fx="-12.25" fy="-126.83" r="732.85" xlink:href="#Nueva_muestra_de_degradado_1"/><radialGradient id="Nueva_muestra_de_degradado_1-6" cx="-12.25" cy="-126.83" fx="-12.25" fy="-126.83" r="732.85" xlink:href="#Nueva_muestra_de_degradado_1"/><radialGradient id="Nueva_muestra_de_degradado_1-7" cx="-12.25" cy="-126.83" fx="-12.25" fy="-126.83" r="732.85" xlink:href="#Nueva_muestra_de_degradado_1"/><radialGradient id="Nueva_muestra_de_degradado_1-8" cx="-12.25" cy="-126.83" fx="-12.25" fy="-126.83" r="732.85" xlink:href="#Nueva_muestra_de_degradado_1"/><radialGradient id="Nueva_muestra_de_degradado_1-9" cx="-12.25" cy="-126.83" fx="-12.25" fy="-126.83" r="732.85" xlink:href="#Nueva_muestra_de_degradado_1"/><radialGradient id="Nueva_muestra_de_degradado_1-10" cx="-12.25" cy="-126.83" fx="-12.25" fy="-126.83" r="732.85" xlink:href="#Nueva_muestra_de_degradado_1"/><radialGradient id="Nueva_muestra_de_degradado_1-11" cx="-12.25" cy="-126.83" fx="-12.25" fy="-126.83" r="732.85" xlink:href="#Nueva_muestra_de_degradado_1"/><radialGradient id="Nueva_muestra_de_degradado_1-12" cx="-12.25" cy="-126.83" fx="-12.25" fy="-126.83" r="732.85" xlink:href="#Nueva_muestra_de_degradado_1"/><radialGradient id="Nueva_muestra_de_degradado_1-13" cy="-126.83" fy="-126.83" r="732.85" xlink:href="#Nueva_muestra_de_degradado_1"/><radialGradient id="Nueva_muestra_de_degradado_1-14" cx="-12.25" cy="-126.83" fx="-12.25" fy="-126.83" r="732.85" xlink:href="#Nueva_muestra_de_degradado_1"/><radialGradient id="Nueva_muestra_de_degradado_1-15" cx="-12.25" cy="-126.83" fx="-12.25" fy="-126.83" r="732.85" xlink:href="#Nueva_muestra_de_degradado_1"/><radialGradient id="Nueva_muestra_de_degradado_1-16" cx="-12.25" cy="-126.83" fx="-12.25" fy="-126.83" r="732.85" xlink:href="#Nueva_muestra_de_degradado_1"/><radialGradient id="Nueva_muestra_de_degradado_1-17" cx="-12.25" cy="-126.83" fx="-12.25" fy="-126.83" r="732.85" xlink:href="#Nueva_muestra_de_degradado_1"/><radialGradient id="Nueva_muestra_de_degradado_1-18" cx="-12.25" cy="-126.83" fx="-12.25" fy="-126.83" r="732.85" xlink:href="#Nueva_muestra_de_degradado_1"/><radialGradient id="Nueva_muestra_de_degradado_1-19" cx="-12.25" cy="-126.83" fx="-12.25" fy="-126.83" r="732.85" xlink:href="#Nueva_muestra_de_degradado_1"/><radialGradient id="Nueva_muestra_de_degradado_1-20" cx="-12.25" cy="-126.83" fx="-12.25" fy="-126.83" r="732.85" xlink:href="#Nueva_muestra_de_degradado_1"/><radialGradient id="Nueva_muestra_de_degradado_1-21" cx="-12.25" cy="-126.83" fx="-12.25" fy="-126.83" r="732.85" xlink:href="#Nueva_muestra_de_degradado_1"/><radialGradient id="Nueva_muestra_de_degradado_1-22" cx="-12.25" cy="-126.83" fx="-12.25" fy="-126.83" r="732.85" xlink:href="#Nueva_muestra_de_degradado_1"/><radialGradient id="Nueva_muestra_de_degradado_1-23" cx="-12.25" cy="-126.83" fx="-12.25" fy="-126.83" r="732.85" xlink:href="#Nueva_muestra_de_degradado_1"/><radialGradient id="Nueva_muestra_de_degradado_1-24" cx="-12.25" cy="-126.83" fx="-12.25" fy="-126.83" r="732.85" xlink:href="#Nueva_muestra_de_degradado_1"/><radialGradient id="Nueva_muestra_de_degradado_1-25" cx="-12.25" cy="-126.83" fx="-12.25" fy="-126.83" r="732.85" xlink:href="#Nueva_muestra_de_degradado_1"/><radialGradient id="Nueva_muestra_de_degradado_1-26" cx="-12.25" cy="-126.83" fx="-12.25" fy="-126.83" r="732.85" xlink:href="#Nueva_muestra_de_degradado_1"/><radialGradient id="Nueva_muestra_de_degradado_1-27" cx="-12.25" cy="-126.83" fx="-12.25" fy="-126.83" r="732.85" xlink:href="#Nueva_muestra_de_degradado_1"/><radialGradient id="Nueva_muestra_de_degradado_1-28" cx="-12.25" cy="-126.83" fx="-12.25" fy="-126.83" r="732.85" xlink:href="#Nueva_muestra_de_degradado_1"/><radialGradient id="Nueva_muestra_de_degradado_1-29" cx="-12.25" cy="-126.83" fx="-12.25" fy="-126.83" r="732.85" xlink:href="#Nueva_muestra_de_degradado_1"/><radialGradient id="Nueva_muestra_de_degradado_1-30" cx="-12.25" cy="-126.83" fx="-12.25" fy="-126.83" r="732.85" xlink:href="#Nueva_muestra_de_degradado_1"/><radialGradient id="Nueva_muestra_de_degradado_1-31" cx="-12.25" cy="-126.83" fx="-12.25" fy="-126.83" r="732.85" xlink:href="#Nueva_muestra_de_degradado_1"/><radialGradient id="Nueva_muestra_de_degradado_1-32" cx="-12.25" cy="-126.83" fx="-12.25" fy="-126.83" r="732.85" xlink:href="#Nueva_muestra_de_degradado_1"/><radialGradient id="Nueva_muestra_de_degradado_1-33" cx="-12.25" cy="-126.83" fx="-12.25" fy="-126.83" r="732.85" xlink:href="#Nueva_muestra_de_degradado_1"/><radialGradient id="Nueva_muestra_de_degradado_1-34" cx="-12.25" cy="-126.83" fx="-12.25" fy="-126.83" r="732.85" xlink:href="#Nueva_muestra_de_degradado_1"/><radialGradient id="Nueva_muestra_de_degradado_1-35" cx="-12.25" cy="-126.83" fx="-12.25" fy="-126.83" r="732.85" xlink:href="#Nueva_muestra_de_degradado_1"/><radialGradient id="Nueva_muestra_de_degradado_1-36" cx="-12.25" cy="-126.83" fx="-12.25" fy="-126.83" r="732.85" xlink:href="#Nueva_muestra_de_degradado_1"/><radialGradient id="Nueva_muestra_de_degradado_1-37" cx="-12.25" cy="-126.83" fx="-12.25" fy="-126.83" r="732.85" xlink:href="#Nueva_muestra_de_degradado_1"/><radialGradient id="Nueva_muestra_de_degradado_1-38" cx="-12.25" cy="-126.83" fx="-12.25" fy="-126.83" r="732.85" xlink:href="#Nueva_muestra_de_degradado_1"/><radialGradient id="Nueva_muestra_de_degradado_1-39" cx="-12.25" cy="-126.83" fx="-12.25" fy="-126.83" r="732.85" xlink:href="#Nueva_muestra_de_degradado_1"/></defs><g id="Capa_1-2"><g><g><path class="cls-39" d="M84.21,56.47c-3.06,0-4.85-2.1-4.85-4.96s1.94-5.01,4.85-5.01c2.26,0,4.07,1.16,4.38,3.39h-2.3c-.29-.89-1.02-1.43-2.08-1.43-1.58,0-2.66,1.3-2.66,3.05,0,1.84,1.19,2.99,2.66,2.99,1.15,0,1.97-.55,2.23-1.37h2.31c-.29,2.17-2.26,3.34-4.54,3.34"/><path class="cls-7" d="M101.08,54.16h-3.52l-.73,2.17h-2.28l3.5-9.69h2.56l3.49,9.69h-2.28l-.73-2.17Zm-.58-1.74l-1.12-3.32h-.12l-1.11,3.32h2.35Z"/><polygon class="cls-8" points="112.75 48.61 112.75 50.83 116.79 50.83 116.79 52.69 112.75 52.69 112.75 56.33 110.6 56.33 110.6 46.64 117.44 46.64 117.44 48.61 112.75 48.61"/><path class="cls-6" d="M131.04,54.48v1.86h-6.84v-9.69h6.7v1.86h-4.61v2.01h3.92v1.81h-3.92v2.16h4.75Zm-1.44-10.61l-1.26,2.01h-1.57l1.11-2.01h1.72Z"/><path class="cls-5" d="M168.61,128.12c-2.57,0-3.88-4.51-3.88-10.78,0-11.9,4.7-30.01,14.41-30.01,1.44,0,3.13,.38,4.82,.88-6.08,28.13-11.53,39.91-15.35,39.91m-141.1,6.2c-6.95,0-9.59-8.4-9.59-19.42,0-11.84,3.13-26.75,7.27-37.34,5.64,5.39,12.09,11.22,18.48,16.98-.13,19.05-5.89,39.79-16.17,39.79m174.56-20.74c-2.32,5.39-4.95,10.65-7.96,16.29l-.31-.06c.19-11.22,2.13-26.94,4.14-39.1-2.82-1.19-6.58-2.32-9.77-2.88-.56-6.58-7.71-11.84-15.66-11.84-14.1,0-21.74,16.6-23.68,36.28-2.26,5.39-4.89,10.71-7.89,16.35l-.19-.06c.06-12.91,2.69-31.64,4.95-43.42-2.88-2.88-13.72-8.15-16.67-8.27-6.39,7.77-12.84,25.25-18.04,42.73l-.25-.06c2.01-14.16,3.95-28.51,4.76-36.65-2.88-2.88-13.72-8.15-16.67-8.27-6.58,8.27-13.47,26.88-18.92,44.92l-.25-.06c1.94-11.15,3.63-24.87,4.32-30.7-2.94-2.94-15.04-8.27-18.3-8.4-2.13,3.57-4.7,7.83-6.89,11.22l-.25-.06c-1.13-8.9-3.82-16.6-8.9-22.93-4.26-5.26-8.9-7.83-13.03-7.83-5.76,0-10.71,4.95-12.84,14.66-3.7-3.57-8.77-5.64-10.59-5.64C4.7,83.95,0,101.93,0,117.72c0,20.3,7.83,36.97,25.69,36.97,19.24,0,31.7-22.43,33.27-46.62,3.2-4.14,5.89-7.71,8.71-11.84l.25,.06c-1.44,10.53-3.95,28.57-6.01,39.72,3.76,4.2,13.78,8.15,18.48,8.15,4.32-14.47,8.96-27.44,15.48-38.91l.25,.06c-1.69,11.22-3.32,25.12-4.32,37.84,3.7,3.88,12.59,7.52,17.36,7.52,5.26-16.67,10.65-31.89,18.11-45.55l.25,.06c-2.69,12.03-3.88,21.11-3.88,28.01,0,12.47,4.57,15.48,9.59,15.48,6.27,0,11.65-5.83,15.79-15.54h.25c1.88,10.28,6.7,15.54,13.03,15.54s11.9-5.58,15.91-16.42h.25c0,14.79,6.7,16.42,10.46,16.42,7.52,0,12.09-8.27,21.49-31.2-1.25-1.32-6.83-3.88-8.33-3.88"/><g><path class="cls-4" d="M30.12,173.32v7.09c0,1.46-.41,2.59-1.24,3.37-.82,.78-1.92,1.17-3.28,1.17s-2.47-.39-3.31-1.17c-.84-.78-1.26-1.9-1.26-3.37v-7.09h1.72v7.01c0,.97,.26,1.72,.79,2.24,.52,.52,1.21,.79,2.06,.79s1.53-.26,2.04-.78c.51-.52,.76-1.27,.76-2.25v-7.01h1.72Z"/><path class="cls-1" d="M40.58,173.32h1.69v11.47h-1.82l-5.77-8.5h-.11v8.5h-1.69v-11.47h1.82l5.77,8.52h.11v-8.52Z"/><path class="cls-2" d="M54.41,183.27c-1.09,1.12-2.45,1.69-4.1,1.69s-3.02-.56-4.11-1.68c-1.09-1.12-1.64-2.53-1.64-4.22s.55-3.09,1.64-4.21c1.09-1.12,2.46-1.69,4.11-1.69s3,.56,4.1,1.69c1.09,1.12,1.64,2.53,1.64,4.21s-.54,3.08-1.63,4.21Zm-6.96-1.14c.76,.82,1.71,1.24,2.86,1.24s2.1-.41,2.85-1.24c.75-.82,1.13-1.85,1.13-3.07s-.38-2.25-1.14-3.07c-.76-.82-1.71-1.24-2.84-1.24s-2.1,.41-2.86,1.24c-.76,.82-1.14,1.85-1.14,3.07s.38,2.25,1.14,3.07Z"/><path class="cls-3" d="M67.15,173.32c1.12,0,2.02,.32,2.69,.97,.67,.64,1,1.49,1,2.54s-.34,1.94-1.02,2.59c-.68,.64-1.6,.97-2.75,.97h-2.6v4.41h-1.67v-11.47h4.36Zm-.25,5.54c.7,0,1.24-.18,1.61-.54,.38-.36,.57-.85,.57-1.47s-.19-1.11-.57-1.47c-.38-.36-.89-.53-1.52-.53h-2.52v4.01h2.44Z"/><path class="cls-14" d="M79.47,184.79l-1.02-3h-4.46l-1.02,3h-1.85l4.05-11.47h2.11l4.03,11.47h-1.85Zm-5-4.46h3.51l-1.69-5h-.13l-1.69,5Z"/><path class="cls-15" d="M91.33,184.79h-1.87l-2.65-4.68h-2.13v4.68h-1.69v-11.47h4.24c1.1,0,1.98,.3,2.63,.9,.65,.6,.97,1.4,.97,2.39,0,.8-.21,1.47-.63,2.02-.42,.55-1,.93-1.74,1.16l2.87,5Zm-6.65-9.98v3.8h2.33c.66,0,1.17-.17,1.55-.52,.38-.35,.57-.81,.57-1.39s-.19-1.05-.57-1.38c-.38-.33-.89-.5-1.55-.5h-2.33Z"/><path class="cls-12" d="M100.96,184.79l-1.02-3h-4.46l-1.02,3h-1.85l4.05-11.47h2.11l4.03,11.47h-1.85Zm-5-4.46h3.51l-1.69-5h-.13l-1.69,5Z"/><path class="cls-13" d="M119.22,181.23c-.21,1.14-.78,2.04-1.7,2.71-.93,.67-2.05,1.01-3.36,1.01-1.67,0-3.01-.55-4.01-1.64-1.01-1.09-1.51-2.5-1.51-4.21s.51-3.15,1.53-4.27c1.02-1.12,2.35-1.68,3.99-1.68,1.28,0,2.36,.34,3.25,1.01,.89,.67,1.43,1.6,1.63,2.79h-1.85c-.2-.68-.56-1.22-1.08-1.61-.52-.4-1.17-.6-1.93-.6-1.12,0-2.04,.42-2.74,1.25-.7,.84-1.05,1.87-1.05,3.1s.35,2.27,1.06,3.06c.7,.8,1.61,1.2,2.71,1.2,.8,0,1.48-.19,2.05-.58,.57-.39,.96-.9,1.16-1.55h1.85Z"/><path class="cls-16" d="M128.3,184.79l-1.02-3h-4.46l-1.02,3h-1.85l4.05-11.47h2.11l4.03,11.47h-1.85Zm-5-4.46h3.51l-1.69-5h-.13l-1.69,5Z"/><path class="cls-11" d="M135.54,173.32c1.77,0,3.13,.51,4.09,1.54,.96,1.03,1.43,2.42,1.43,4.19s-.48,3.14-1.43,4.18c-.96,1.04-2.32,1.56-4.09,1.56h-3.72v-11.47h3.72Zm-.08,9.91c1.31,0,2.28-.38,2.91-1.15,.63-.76,.94-1.79,.94-3.08s-.31-2.27-.93-3.01c-.62-.74-1.59-1.11-2.92-1.11h-1.92v8.35h1.92Z"/><path class="cls-17" d="M150.2,184.79l-1.02-3h-4.46l-1.02,3h-1.85l4.05-11.47h2.11l4.03,11.47h-1.85Zm-5-4.46h3.51l-1.69-5h-.13l-1.69,5Z"/><path class="cls-18" d="M167.3,173.32v7.09c0,1.46-.41,2.59-1.24,3.37-.82,.78-1.92,1.17-3.28,1.17s-2.47-.39-3.31-1.17c-.84-.78-1.26-1.9-1.26-3.37v-7.09h1.72v7.01c0,.97,.26,1.72,.79,2.24,.52,.52,1.21,.79,2.06,.79s1.53-.26,2.04-.78c.51-.52,.76-1.27,.76-2.25v-7.01h1.72Z"/><path class="cls-10" d="M177.76,173.32h1.69v11.47h-1.82l-5.77-8.5h-.11v8.5h-1.69v-11.47h1.82l5.77,8.52h.11v-8.52Z"/><path class="cls-9" d="M191.59,183.27c-1.09,1.12-2.45,1.69-4.1,1.69s-3.02-.56-4.11-1.68c-1.09-1.12-1.64-2.53-1.64-4.22s.55-3.09,1.64-4.21c1.09-1.12,2.46-1.69,4.11-1.69s3,.56,4.1,1.69c1.09,1.12,1.64,2.53,1.64,4.21s-.54,3.08-1.63,4.21Zm-6.96-1.14c.76,.82,1.71,1.24,2.86,1.24s2.1-.41,2.85-1.24c.75-.82,1.13-1.85,1.13-3.07s-.38-2.25-1.14-3.07c-.76-.82-1.71-1.24-2.84-1.24s-2.1,.41-2.86,1.24c-.76,.82-1.14,1.85-1.14,3.07s.38,2.25,1.14,3.07Z"/></g><path class="cls-21" d="M209.88,105.65c-.06,.09-.16,.15-.3,.2-.14,.05-.32,.07-.56,.07h-.29c-.09,0-.17,0-.24,0-.07,0-.12,0-.17,0h-.06c0-.17,0-.35,0-.54v-.62c.05,0,.11,0,.17,0,.07,0,.14,0,.21,0,.07,0,.14,0,.2,0,.06,0,.11,0,.14,0,.25,0,.45,.02,.59,.05,.14,.03,.24,.09,.31,.17,.06,.08,.1,.21,.1,.38,0,.13-.03,.24-.09,.32m3.08,.3c0,2.26-1.54,3.63-3.89,3.63s-3.89-1.38-3.89-3.63,1.54-3.63,3.89-3.63,3.89,1.38,3.89,3.63m-1.77,2.06c-.04-.09-.07-.2-.11-.34-.04-.14-.08-.29-.13-.45-.06-.2-.14-.35-.22-.46-.08-.11-.19-.19-.31-.24-.12-.06-.27-.09-.45-.12-.03,0-.07,0-.11-.01v-.02c.14-.02,.27-.04,.38-.08,.23-.07,.4-.19,.52-.36,.11-.17,.17-.41,.17-.72,0-.36-.06-.63-.19-.81s-.31-.31-.53-.37c-.23-.06-.5-.09-.82-.09h-2.04c0,.31,0,.63,0,.95,0,.33,0,.71,0,1.16,0,.41,0,.77,0,1.07,0,.3,0,.6,0,.88h1c-.01-.2-.02-.43-.03-.71,0-.2,0-.41-.01-.64,.05,0,.1,0,.16,0,.07,0,.15,0,.23,0s.16,0,.24,0c.08,0,.16,0,.24,0,.16,0,.28,.02,.38,.06,.1,.04,.18,.1,.24,.19,.06,.09,.11,.21,.16,.37,.04,.16,.1,.36,.16,.6,.01,.03,.02,.06,.03,.08,.01,.02,.03,.04,.05,.05,.02,.01,.06,.02,.1,.02h.9Z"/></g><g><g><path class="cls-27" d="M447.77,141.73l-.05-17.5,2.99-.45-.08,21.47-4.85,.74-6.31-20.5,3.28-.5,5.02,16.74Z"/><path class="cls-20" d="M456.18,131.99l4.47-.68,.44,3-4.47,.68,.91,6.15,5.62-.86,.44,3-8.87,1.35-3.11-20.98,8.87-1.35,.44,3-5.62,.86,.87,5.85Z"/><path class="cls-23" d="M471.82,142.02c-.06-.13-.12-.26-.18-.37-.06-.11-.11-.26-.17-.43-.06-.17-.11-.4-.16-.68-.05-.28-.11-.63-.17-1.05l-.49-3.3c-.15-.98-.42-1.64-.81-1.99-.4-.35-.97-.47-1.72-.35l-1.12,.17,1.27,8.54-3.25,.5-3.11-20.98,4.91-.75c1.7-.26,2.98-.05,3.86,.64,.88,.68,1.44,1.83,1.68,3.45l.24,1.65c.32,2.16-.18,3.68-1.5,4.58,.88,.21,1.53,.68,1.95,1.41,.42,.72,.71,1.63,.87,2.73l.48,3.24c.08,.52,.16,.97,.26,1.35,.1,.38,.25,.76,.47,1.14l-3.31,.5Zm-6.22-17.45l.96,6.44,1.27-.19c.61-.09,1.07-.32,1.36-.7,.3-.37,.38-.98,.26-1.82l-.31-2.07c-.11-.76-.33-1.29-.64-1.59-.32-.3-.76-.41-1.33-.32l-1.57,.24Z"/><path class="cls-28" d="M473.2,120.35l5.15-.78c1.64-.25,2.92,0,3.85,.76,.93,.76,1.52,1.99,1.77,3.68l1.57,10.61c.25,1.7,.04,3.05-.62,4.05-.67,1-1.82,1.63-3.46,1.88l-5.15,.78-3.11-20.98Zm3.7,2.5l2.22,14.99,1.83-.28c.51-.08,.89-.29,1.15-.63,.25-.35,.32-.9,.21-1.66l-1.62-10.91c-.11-.76-.34-1.27-.68-1.52-.34-.25-.77-.34-1.28-.26l-1.83,.28Z"/><path class="cls-26" d="M498.29,137.99l-3.28,.5-1.13-3.72-3.99,.61v3.89s-2.98,.46-2.98,.46l.2-21.49,4.76-.73,6.42,20.48Zm-8.41-5.52l3.13-.48-3.14-10.37v10.85Z"/><path class="cls-22" d="M496.09,116.87l5.15-.78c1.64-.25,2.92,0,3.85,.76,.93,.76,1.52,1.99,1.77,3.68l1.57,10.61c.25,1.7,.04,3.05-.62,4.05-.67,1-1.82,1.63-3.46,1.88l-5.15,.78-3.11-20.98Zm3.7,2.5l2.22,14.99,1.83-.28c.51-.08,.89-.29,1.15-.63,.25-.34,.32-.9,.21-1.66l-1.62-10.91c-.11-.76-.34-1.27-.68-1.52-.34-.25-.77-.34-1.28-.26l-1.83,.28Z"/></g><g><path class="cls-24" d="M447.87,112.94l-1.82,.28,.25,5.77-2.52,.38-.25-5.77-1.37,.21-.1-2.25,1.37-.21-.24-5.28-1.4,.21-.1-2.25,1.4-.21-.2-4.65,2.52-.38,.2,4.65,1.82-.28-.2-4.65,2.52-.38,.2,4.65,1.43-.22,.1,2.25-1.43,.22,.24,5.28,1.43-.22,.1,2.25-1.43,.22,.25,5.77-2.52,.38-.25-5.77Zm-1.93-1.97l1.82-.28-.24-5.28-1.82,.28,.24,5.28Z"/><path class="cls-25" d="M459.78,105.17l4.23-.64,.42,2.84-4.23,.64,.86,5.82,5.32-.81,.42,2.84-8.41,1.28-2.95-19.89,8.41-1.28,.42,2.84-5.32,.81,.82,5.54Z"/><path class="cls-19" d="M465.52,100.6c-.24-1.61-.04-2.9,.59-3.88,.63-.98,1.7-1.58,3.21-1.81,1.51-.23,2.71,.03,3.6,.77,.88,.75,1.45,1.92,1.68,3.53l.11,.77-2.91,.44-.14-.97c-.11-.72-.32-1.21-.63-1.46-.31-.25-.71-.34-1.2-.27-.49,.07-.84,.28-1.07,.61-.23,.34-.29,.86-.18,1.58,.1,.68,.34,1.26,.72,1.74,.38,.47,.82,.91,1.34,1.31,.52,.4,1.07,.79,1.65,1.17,.58,.39,1.14,.82,1.67,1.3,.53,.48,1,1.05,1.4,1.7,.4,.66,.67,1.46,.82,2.4,.24,1.61,.03,2.9-.61,3.88-.65,.98-1.73,1.59-3.24,1.82-1.51,.23-2.72-.03-3.62-.77-.9-.74-1.47-1.92-1.71-3.53l-.2-1.36,2.91-.44,.23,1.56c.11,.72,.33,1.2,.66,1.44,.33,.24,.74,.32,1.23,.25,.49-.07,.85-.27,1.1-.6,.25-.33,.32-.85,.21-1.57-.1-.68-.34-1.26-.72-1.74-.38-.47-.82-.91-1.34-1.31-.52-.4-1.07-.79-1.65-1.17-.58-.38-1.14-.82-1.67-1.3-.53-.48-1-1.05-1.4-1.71-.4-.65-.67-1.45-.81-2.4Z"/><path class="cls-33" d="M478.91,93.68l4.88-.74c1.55-.24,2.77,0,3.65,.72,.88,.72,1.44,1.88,1.68,3.49l1.49,10.05c.24,1.61,.04,2.89-.59,3.84-.63,.95-1.73,1.54-3.28,1.78l-4.88,.74-2.95-19.89Zm3.5,2.37l2.11,14.2,1.74-.26c.49-.07,.85-.28,1.09-.6,.24-.33,.3-.85,.2-1.57l-1.53-10.34c-.11-.72-.32-1.2-.64-1.44-.32-.24-.73-.32-1.21-.25l-1.74,.26Z"/><path class="cls-35" d="M494.11,99.94l4.23-.64,.42,2.84-4.23,.64,.86,5.82,5.32-.81,.42,2.84-8.41,1.28-2.95-19.89,8.41-1.28,.42,2.84-5.32,.81,.82,5.54Z"/></g><g><path class="cls-36" d="M476.02,105.67l2.72-.41-.47-3.19-5.28,.8c1.33,.93,2.32,1.83,3.03,2.8Z"/><polygon class="cls-37" points="499.69 98.78 500.16 101.98 512.58 100.11 518.38 139.19 435.72 151.79 429.92 112.71 439.74 111.08 439.27 107.89 426.3 110 433.04 155.46 522 141.91 515.26 96.44 499.69 98.78"/></g><g><path class="cls-38" d="M389.09,107.78c.4-1.08,.93-3.5-.46-3.6-1.56-.12-2.45,3.33-2.45,3.33l-1.7,6.33,1.84-.2c.99-1.2,2.62-5.43,2.77-5.86Z"/><path class="cls-34" d="M322.13,98.26c-6.81-.35-11.31,5.61-12.47,13.29-1.15,7.66,.46,15.56,.46,15.56,1.27,7.67,4.15,6.97,4.15,6.97,2.98-.44,3.53-5.22,3.53-5.22,.5-2.67,.34-10.24,.34-10.24,0,0-2.88-1.11-4.21-1.82-1.33-.7-1.49-2.64-1.27-3.98,.18-1.08,1.29-.53,2.3-.24,.8,.23,2.6,.7,2.6,.7,0,0-.17-3.16,.29-5.67,.46-2.52,2.3-4.52,4.61-4.33,2.31,.17,2.02,1.28,1.74,3.1-.23,1.43-.88,6.37-.88,6.37,8.32-1.69,7.74-7.72,7.74-7.72,0-2.82-2.13-6.44-8.94-6.79Z"/><path class="cls-31" d="M356.24,121.86c-.83-.94-2.81-.44-3.75,.91-.99,1.41-1.13,5.03-1.13,5.03,2.31-.21,3.98-2,4.52-2.5,.9-.85,1.19-2.51,.36-3.44Z"/><path class="cls-30" d="M401.03,126.97s-1.73-.87-1.54-2.65c.18-1.71,1.85-2.35,1.85-2.35,0,0-.27-.77-1.5-.77-2.36,0-3.89,4.37-4.24,6.27-.34,1.92-.3,6.13,2.54,6.48,2.85,.35,3.74-4.8,3.74-5.69s-.86-1.29-.86-1.29Z"/><path class="cls-29" d="M362.85,133.77c.26-.17,1.42,.53,1.42,.53,0,0,2.05,1.95,4.01-.27,1.96-2.23-1.42-7.08-1.42-7.08-.2,.52-4.01,6.81-4.01,6.81Z"/><path class="cls-32" d="M424.1,111.83c-.76-11.48-7.16-48.1-57.52-55.64l5.28-20.52,49.23,13.21-7.52-18.89,16.18-12.43-50-13.58-2.94-3.98-14.31,55.82s-70.84-6.02-76.26,56.41c-5.43,2.16-9.27,7.51-9.27,13.79v2.33c0,6.64,4.3,12.25,10.22,14.14,.77,4.54,3.03,14.28,8.51,18.07,7.27,5.03,18.8,7.55,30.13,8.81,14.45,1.6,35.72,1.06,35.72,1.06,0,0,25.39-.92,34.47-2.31,8.11-1.26,17.9-5.41,21.98-10.25,2.9-3.46,4.45-11.01,5.11-15.07,6.5-1.51,11.36-7.39,11.36-14.45v-2.33c0-6.68-4.37-12.33-10.35-14.19Zm-100.84,16.78c-.39,4.3-3.89,10.66-9.54,10.74-5.66,.07-8.12-8.55-8.12-8.55-3.05-8.63-2.12-16.45-2.12-16.45,1.24-9.92,3.64-13.46,7.65-17.15,4.59-4.22,10.6-4.16,10.6-4.16,5.77-.17,9.16,2.21,9.16,2.21,5.78,3.78,5.24,9.75,5.24,9.75-.27,10.81-12.62,13.03-12.62,13.03,.71,5.92-.23,10.57-.23,10.57Zm83.32-.52c0,3.36-2.37,6.67-2.37,6.67-1.7,2.13-3.09,3.27-6.4,3.48-3.52,.22-5.08-2.31-5.08-2.31l-2.85,1.52s-1.69,1.02-4.1,1.25c-2.43,.23-3.67-1.72-3.67-1.72-1.27-1.37-2.42-5.62-2.42-5.62,0,0-.99,1-2.51,2.34-1.53,1.35-6.78,5.19-11.93,4.99-2.62-.11-3.84-2.58-3.89-2.91-.06-.31-.09-.29-.09-.29-3.53,2.14-5.06,3.26-9.2,2.41-4.34-.9-5.52-5.18-5.69-6.03-.18-.84-.23-.76-.23-.76,0,0-2.22,1.55-5.17,.32-2.95-1.23-3.25-6.14-3.26-6.58-.02-.45-.17-.53-.17-.53-.32-.17-.43,.2-.43,.2l-3.13,8.92s-.66,2.31-1.67,3.92c-1.08,1.73-2.87,.44-2.87,.44,0,0-1.44-.58-1.39-4.44,.06-3.86,2.05-14.17,2.74-15.34,0,0,.43-.92,1.22-.93,.69-.02,1.39,0,1.39,0,0,0,.89-.03,.93,.93,.03,.96,.03,5.18,.03,5.18,0,0,.26,.17,.37-.13,.12-.28,2.28-5.94,5.72-6.05,3.44-.12,1.96,4.06,1.88,4.8-.09,.74-.61,3.69,.25,4.47,0,0,.85,1.23,3.79-.11,0,0,1.39-8.46,8.2-9.16,0,0,5.22-.33,5.97,4.5,.76,4.83-4.56,8.18-4.56,8.18,0,0-2.05,1.4-4.12,1.81,0,0,.66,1.63,2.07,1.92,1.38,.29,5.17-.41,6.64-2.69,1.47-2.28,4.56-10.56,4.56-10.56,0,0,.92-3.42,3.26-3.98,2.34-.55,2.97,.39,3.18,1.06,.21,.67,.15,1.08-.11,1.78-.26,.7-1.25,2.61-1.25,2.61,0,0-.28,.64-.05,1.19,.23,.56,1.59,2.78,2.05,3.69,0,0,1.27,2.73,1.5,4.22,0,0,4.53-4.15,5.36-4.77,0,0,.06-6.53,.43-7.94,0,0-3.95,.97-5.24-.28,0,0-.82-.62-.52-1.8,0,0,.26-1.11,1.56-1.28,1.29-.17,4.93-.53,4.93-.53,.32-1.72,.9-5.19,3.5-10.41,2.42-4.89,5.37-4.51,5.37-4.51,4.16,.53,3.93,6.36,3.93,6.36,.08,2.99-2.6,7.72-2.6,7.72l6.07-.5s1.07-.08,1.15,1.37c.09,1.47-.74,1.76-1.09,1.81-.23,.04-8.11,.65-8.11,.65-.52,1.12-4.21,5.62-4.21,5.62,0,0-.26,6.11-.23,7.84,.03,1.72,.66,3.3,2.62,3.59,1.96,.3,4.7-1.61,4.7-1.61-1.4-1.9-.46-6.61-.46-6.61,.95-3.85,3.21-5.91,3.21-5.91,0,0,2.51-2.69,6.47-2.37,3.91,.31,5.39,5.47,5.39,5.47,0,0,2.09,.43,2.16,2.72,.08,2.26-1.5,2.7-1.5,2.7Z"/></g></g></g></g></svg>