<?xml version="1.0" encoding="UTF-8"?><svg id="Capa_2" xmlns="http://www.w3.org/2000/svg" viewBox="0 0 593.15 210.16"><defs><style>.cls-1{fill:#fff;}</style></defs><g id="Capa_1-2"><g><g><path class="cls-1" d="M95.69,64.17c-3.48,0-5.51-2.39-5.51-5.63s2.2-5.7,5.51-5.7c2.57,0,4.63,1.32,4.97,3.86h-2.61c-.33-1.01-1.16-1.62-2.36-1.62-1.79,0-3.02,1.48-3.02,3.46,0,2.09,1.35,3.4,3.02,3.4,1.31,0,2.23-.63,2.53-1.56h2.63c-.33,2.47-2.57,3.79-5.16,3.79"/><path class="cls-1" d="M114.85,61.54h-4l-.83,2.47h-2.6l3.98-11.02h2.91l3.97,11.02h-2.6l-.83-2.47Zm-.66-1.98l-1.27-3.78h-.14l-1.26,3.78h2.67Z"/><polygon class="cls-1" points="128.12 55.23 128.12 57.76 132.71 57.76 132.71 59.87 128.12 59.87 128.12 64.01 125.68 64.01 125.68 53 133.45 53 133.45 55.23 128.12 55.23"/><path class="cls-1" d="M148.9,61.9v2.11h-7.77v-11.02h7.62v2.11h-5.24v2.28h4.45v2.06h-4.45v2.45h5.4Zm-1.64-12.05l-1.43,2.28h-1.78l1.26-2.28h1.95Z"/><path class="cls-1" d="M191.59,145.58c-2.92,0-4.41-5.13-4.41-12.25,0-13.53,5.34-34.1,16.38-34.1,1.64,0,3.56,.43,5.48,1-6.91,31.97-13.1,45.35-17.44,45.35m-160.33,7.05c-7.9,0-10.89-9.54-10.89-22.07,0-13.46,3.56-30.4,8.26-42.43,6.41,6.12,13.74,12.74,21,19.29-.14,21.64-6.69,45.21-18.37,45.21m198.35-23.57c-2.63,6.12-5.62,12.1-9.04,18.51l-.36-.07c.21-12.74,2.42-30.61,4.7-44.43-3.2-1.35-7.48-2.63-11.11-3.28-.64-7.48-8.76-13.46-17.8-13.46-16.02,0-24.71,18.87-26.91,41.22-2.56,6.12-5.55,12.17-8.97,18.58l-.21-.07c.07-14.67,3.06-35.95,5.62-49.34-3.28-3.28-15.59-9.26-18.94-9.4-7.26,8.83-14.6,28.69-20.5,48.56l-.28-.07c2.28-16.09,4.49-32.39,5.41-41.65-3.28-3.27-15.59-9.26-18.94-9.4-7.48,9.4-15.31,30.54-21.5,51.05l-.28-.07c2.21-12.67,4.13-28.26,4.91-34.89-3.35-3.35-17.09-9.4-20.79-9.54-2.42,4.06-5.34,8.9-7.83,12.74l-.28-.07c-1.28-10.11-4.34-18.87-10.11-26.06-4.84-5.98-10.11-8.9-14.81-8.9-6.55,0-12.17,5.62-14.6,16.66-4.2-4.06-9.97-6.41-12.03-6.41C5.34,95.39,0,115.82,0,133.76c0,23.07,8.9,42.01,29.19,42.01,21.86,0,36.03-25.49,37.81-52.97,3.63-4.7,6.69-8.76,9.9-13.46l.28,.07c-1.64,11.96-4.49,32.47-6.83,45.14,4.27,4.77,15.66,9.26,21,9.26,4.91-16.45,10.18-31.18,17.59-44.21l.28,.07c-1.92,12.74-3.77,28.55-4.91,43,4.2,4.41,14.31,8.54,19.72,8.54,5.98-18.94,12.1-36.24,20.58-51.76l.28,.07c-3.06,13.67-4.41,23.99-4.41,31.82,0,14.17,5.2,17.59,10.89,17.59,7.12,0,13.24-6.62,17.94-17.66h.28c2.14,11.68,7.62,17.66,14.81,17.66s13.53-6.34,18.08-18.65h.28c0,16.8,7.62,18.65,11.89,18.65,8.54,0,13.74-9.4,24.42-35.46-1.42-1.49-7.76-4.41-9.47-4.41"/><g><path class="cls-1" d="M34.23,196.95v8.06c0,1.66-.47,2.94-1.41,3.83-.94,.89-2.18,1.33-3.73,1.33s-2.8-.44-3.76-1.33c-.96-.89-1.43-2.16-1.43-3.83v-8.06h1.95v7.97c0,1.1,.3,1.95,.89,2.55,.6,.6,1.38,.89,2.34,.89s1.74-.3,2.32-.88c.58-.59,.87-1.44,.87-2.56v-7.97h1.95Z"/><path class="cls-1" d="M46.11,196.95h1.92v13.03h-2.07l-6.55-9.66h-.13v9.66h-1.92v-13.03h2.07l6.55,9.68h.13v-9.68Z"/><path class="cls-1" d="M61.83,208.25c-1.23,1.28-2.79,1.92-4.66,1.92s-3.43-.64-4.67-1.91c-1.24-1.27-1.86-2.87-1.86-4.79s.62-3.51,1.86-4.78c1.24-1.28,2.8-1.92,4.67-1.92s3.41,.64,4.65,1.92c1.24,1.28,1.86,2.87,1.86,4.78s-.62,3.51-1.85,4.78Zm-7.91-1.29c.86,.94,1.95,1.41,3.25,1.41s2.38-.47,3.24-1.41c.86-.94,1.28-2.1,1.28-3.49s-.43-2.55-1.29-3.49c-.86-.94-1.94-1.4-3.23-1.4s-2.39,.47-3.25,1.4c-.86,.94-1.29,2.1-1.29,3.49s.43,2.55,1.29,3.49Z"/><path class="cls-1" d="M76.3,196.95c1.28,0,2.3,.37,3.05,1.1,.76,.73,1.14,1.69,1.14,2.89s-.38,2.21-1.15,2.94c-.77,.73-1.81,1.1-3.13,1.1h-2.96v5.01h-1.9v-13.03h4.95Zm-.28,6.29c.79,0,1.41-.21,1.83-.61,.43-.41,.64-.97,.64-1.68s-.22-1.26-.65-1.67c-.43-.4-1.01-.6-1.73-.6h-2.87v4.56h2.77Z"/><path class="cls-1" d="M90.3,209.98l-1.15-3.41h-5.06l-1.15,3.41h-2.1l4.6-13.03h2.4l4.58,13.03h-2.1Zm-5.68-5.06h3.98l-1.92-5.68h-.15l-1.92,5.68Z"/><path class="cls-1" d="M103.77,209.98h-2.12l-3.02-5.32h-2.42v5.32h-1.92v-13.03h4.82c1.25,0,2.25,.34,2.99,1.02,.74,.68,1.11,1.59,1.11,2.72,0,.91-.24,1.67-.72,2.29-.48,.62-1.14,1.06-1.98,1.32l3.26,5.68Zm-7.56-11.34v4.32h2.64c.74,0,1.33-.2,1.76-.6,.43-.4,.64-.92,.64-1.58s-.21-1.19-.64-1.57c-.43-.38-1.01-.57-1.76-.57h-2.64Z"/><path class="cls-1" d="M114.72,209.98l-1.15-3.41h-5.06l-1.15,3.41h-2.1l4.6-13.03h2.4l4.58,13.03h-2.1Zm-5.68-5.06h3.98l-1.92-5.68h-.15l-1.92,5.68Z"/><path class="cls-1" d="M135.47,205.94c-.24,1.29-.88,2.32-1.94,3.08-1.05,.76-2.33,1.14-3.82,1.14-1.9,0-3.42-.62-4.56-1.86-1.14-1.24-1.71-2.84-1.71-4.78s.58-3.58,1.74-4.85c1.16-1.27,2.67-1.91,4.53-1.91,1.45,0,2.68,.38,3.69,1.15,1.01,.76,1.63,1.82,1.85,3.17h-2.1c-.22-.77-.63-1.38-1.23-1.83-.6-.45-1.33-.68-2.2-.68-1.28,0-2.31,.47-3.11,1.42-.79,.95-1.19,2.13-1.19,3.53s.4,2.58,1.2,3.48c.8,.91,1.83,1.36,3.08,1.36,.91,0,1.68-.22,2.33-.66,.64-.44,1.09-1.03,1.32-1.76h2.1Z"/><path class="cls-1" d="M145.79,209.98l-1.15-3.41h-5.06l-1.15,3.41h-2.1l4.6-13.03h2.4l4.58,13.03h-2.1Zm-5.68-5.06h3.98l-1.92-5.68h-.15l-1.92,5.68Z"/><path class="cls-1" d="M154.02,196.95c2.01,0,3.56,.58,4.64,1.75,1.09,1.17,1.63,2.75,1.63,4.77s-.54,3.57-1.63,4.75c-1.09,1.18-2.63,1.77-4.64,1.77h-4.23v-13.03h4.23Zm-.09,11.26c1.49,0,2.59-.43,3.3-1.3,.71-.87,1.07-2.04,1.07-3.5s-.35-2.58-1.06-3.43c-.71-.84-1.81-1.27-3.31-1.27h-2.18v9.49h2.18Z"/><path class="cls-1" d="M170.68,209.98l-1.15-3.41h-5.06l-1.15,3.41h-2.1l4.6-13.03h2.4l4.58,13.03h-2.1Zm-5.68-5.06h3.98l-1.92-5.68h-.15l-1.92,5.68Z"/><path class="cls-1" d="M190.11,196.95v8.06c0,1.66-.47,2.94-1.41,3.83-.94,.89-2.18,1.33-3.73,1.33s-2.8-.44-3.76-1.33c-.96-.89-1.43-2.16-1.43-3.83v-8.06h1.95v7.97c0,1.1,.3,1.95,.89,2.55,.6,.6,1.38,.89,2.34,.89s1.74-.3,2.32-.88c.58-.59,.87-1.44,.87-2.56v-7.97h1.95Z"/><path class="cls-1" d="M201.98,196.95h1.92v13.03h-2.07l-6.55-9.66h-.13v9.66h-1.92v-13.03h2.07l6.55,9.68h.13v-9.68Z"/><path class="cls-1" d="M217.7,208.25c-1.23,1.28-2.79,1.92-4.66,1.92s-3.43-.64-4.67-1.91c-1.24-1.27-1.86-2.87-1.86-4.79s.62-3.51,1.86-4.78c1.24-1.28,2.8-1.92,4.67-1.92s3.41,.64,4.65,1.92c1.24,1.28,1.86,2.87,1.86,4.78s-.62,3.51-1.85,4.78Zm-7.91-1.29c.86,.94,1.95,1.41,3.25,1.41s2.38-.47,3.24-1.41c.86-.94,1.28-2.1,1.28-3.49s-.43-2.55-1.29-3.49c-.86-.94-1.94-1.4-3.23-1.4s-2.39,.47-3.25,1.4c-.86,.94-1.29,2.1-1.29,3.49s.43,2.55,1.29,3.49Z"/></g><path class="cls-1" d="M238.49,120.06c-.07,.1-.18,.18-.34,.23-.16,.05-.37,.08-.63,.08h-.33c-.11,0-.2,0-.27,0-.08,0-.14,0-.19,0h-.07c0-.2,0-.4,0-.61v-.71c.06,0,.12,0,.19,0,.08,0,.15,0,.23,0,.08,0,.15,0,.22,0,.07,0,.12,0,.16,0,.28,0,.51,.02,.67,.05,.16,.04,.27,.1,.35,.19,.07,.09,.11,.24,.11,.44,0,.15-.03,.27-.1,.37m3.5,.35c0,2.57-1.76,4.13-4.42,4.13s-4.42-1.56-4.42-4.13,1.76-4.13,4.42-4.13,4.42,1.56,4.42,4.13m-2.01,2.35c-.04-.1-.08-.23-.13-.39-.05-.16-.1-.33-.15-.52-.07-.22-.16-.4-.25-.52-.1-.12-.21-.21-.35-.28-.14-.06-.31-.11-.51-.13-.04,0-.08,0-.12-.01v-.02c.16-.02,.31-.05,.43-.09,.26-.08,.46-.22,.59-.41,.13-.19,.19-.46,.19-.81,0-.4-.07-.71-.22-.92s-.35-.35-.61-.42c-.26-.07-.57-.1-.93-.1h-2.32c0,.35,0,.71,0,1.08,0,.37,.01,.81,.01,1.32,0,.47,0,.88-.01,1.22,0,.34,0,.68,0,1h1.13c-.01-.22-.02-.49-.03-.8,0-.22,0-.47-.01-.73,.06,0,.12,0,.18,0,.08,0,.17,0,.26,0s.19,0,.28,0c.09,0,.19,0,.28,0,.18,0,.32,.02,.43,.06,.11,.04,.2,.11,.27,.21,.07,.1,.13,.24,.18,.42,.05,.18,.11,.41,.18,.68,.01,.03,.03,.06,.04,.09,.01,.03,.03,.05,.06,.06,.03,.01,.07,.02,.12,.02h1.02Z"/></g><g><g><path class="cls-1" d="M508.8,161.05l-.06-19.88,3.39-.52-.09,24.4-5.51,.84-7.16-23.29,3.73-.57,5.71,19.02Z"/><path class="cls-1" d="M518.36,149.98l5.07-.77,.51,3.4-5.07,.77,1.04,6.98,6.38-.97,.51,3.41-10.08,1.54-3.54-23.85,10.08-1.54,.5,3.41-6.38,.97,.99,6.64Z"/><path class="cls-1" d="M536.13,161.38c-.07-.15-.14-.29-.2-.42-.07-.13-.13-.29-.19-.49-.06-.2-.12-.46-.18-.77-.06-.31-.12-.71-.19-1.19l-.56-3.75c-.17-1.11-.47-1.87-.92-2.26-.45-.39-1.1-.53-1.95-.4l-1.28,.2,1.44,9.71-3.7,.56-3.54-23.85,5.58-.85c1.93-.29,3.39-.05,4.39,.73,1,.78,1.63,2.08,1.91,3.92l.28,1.87c.36,2.45-.2,4.19-1.7,5.21,1,.24,1.74,.77,2.21,1.6,.48,.82,.81,1.86,.99,3.1l.55,3.68c.09,.59,.19,1.1,.3,1.54,.11,.43,.29,.87,.54,1.29l-3.76,.57Zm-7.06-19.82l1.09,7.32,1.44-.22c.69-.11,1.21-.37,1.55-.79,.34-.42,.44-1.11,.29-2.07l-.35-2.35c-.13-.86-.37-1.46-.73-1.81-.36-.34-.86-.46-1.51-.36l-1.78,.27Z"/><path class="cls-1" d="M537.7,136.76l5.85-.89c1.86-.28,3.32,0,4.37,.87,1.05,.86,1.73,2.26,2.01,4.19l1.79,12.06c.29,1.93,.05,3.47-.71,4.6-.76,1.14-2.07,1.85-3.93,2.13l-5.85,.89-3.54-23.85Zm4.2,2.84l2.53,17.03,2.08-.32c.58-.09,1.02-.33,1.3-.72,.28-.39,.36-1.02,.24-1.88l-1.84-12.4c-.13-.86-.39-1.44-.77-1.73-.39-.29-.87-.39-1.45-.3l-2.08,.32Z"/><path class="cls-1" d="M566.21,156.8l-3.73,.57-1.28-4.23-4.54,.69v4.42s-3.39,.52-3.39,.52l.23-24.42,5.41-.82,7.3,23.27Zm-9.55-6.28l3.56-.54-3.57-11.79v12.33Z"/><path class="cls-1" d="M563.71,132.8l5.85-.89c1.86-.28,3.32,0,4.37,.87,1.05,.86,1.73,2.26,2.01,4.19l1.79,12.06c.29,1.93,.05,3.46-.71,4.6-.76,1.14-2.07,1.85-3.93,2.13l-5.85,.89-3.54-23.85Zm4.2,2.84l2.53,17.03,2.08-.32c.58-.09,1.02-.33,1.3-.72,.28-.39,.36-1.02,.24-1.88l-1.84-12.4c-.13-.86-.39-1.44-.77-1.73-.39-.29-.87-.39-1.45-.3l-2.08,.32Z"/></g><g><path class="cls-1" d="M508.92,128.33l-2.07,.32,.29,6.56-2.87,.44-.29-6.56-1.56,.24-.12-2.56,1.56-.24-.27-6-1.59,.24-.12-2.56,1.59-.24-.23-5.28,2.87-.44,.23,5.28,2.07-.32-.23-5.28,2.86-.44,.23,5.28,1.62-.25,.12,2.56-1.62,.25,.27,6,1.62-.25,.12,2.56-1.62,.25,.29,6.56-2.87,.44-.29-6.56Zm-2.19-2.24l2.07-.32-.27-6-2.07,.32,.27,6Z"/><path class="cls-1" d="M522.45,119.5l4.81-.73,.48,3.23-4.81,.73,.98,6.62,6.05-.92,.48,3.23-9.55,1.46-3.35-22.6,9.55-1.46,.48,3.23-6.05,.92,.93,6.3Z"/><path class="cls-1" d="M528.98,114.32c-.27-1.83-.05-3.3,.67-4.41,.71-1.11,1.93-1.8,3.65-2.06,1.72-.26,3.08,.03,4.09,.88,1,.85,1.64,2.19,1.91,4.02l.13,.87-3.31,.5-.16-1.1c-.12-.82-.36-1.37-.72-1.66-.36-.29-.81-.39-1.36-.3-.55,.08-.96,.32-1.22,.7-.26,.38-.33,.98-.2,1.8,.11,.77,.39,1.43,.81,1.97,.43,.54,.93,1.03,1.52,1.48,.59,.45,1.21,.89,1.87,1.33,.66,.44,1.29,.93,1.9,1.48,.6,.55,1.13,1.19,1.59,1.94,.46,.74,.77,1.66,.93,2.73,.27,1.83,.04,3.3-.7,4.41-.74,1.11-1.96,1.8-3.68,2.06-1.72,.26-3.09-.03-4.12-.88-1.03-.85-1.67-2.18-1.95-4.01l-.23-1.55,3.31-.5,.26,1.78c.12,.82,.37,1.36,.75,1.63,.38,.27,.84,.37,1.39,.28,.55-.08,.97-.31,1.25-.69,.28-.37,.36-.97,.24-1.78-.12-.78-.39-1.43-.81-1.97-.43-.54-.93-1.04-1.52-1.48-.59-.45-1.21-.89-1.87-1.33-.66-.44-1.29-.93-1.9-1.48-.6-.55-1.13-1.19-1.59-1.94-.46-.74-.77-1.65-.93-2.73Z"/><path class="cls-1" d="M544.19,106.45l5.54-.84c1.76-.27,3.14,0,4.14,.82,1,.82,1.64,2.14,1.91,3.97l1.69,11.43c.27,1.83,.05,3.28-.67,4.36-.72,1.08-1.96,1.75-3.72,2.02l-5.54,.84-3.35-22.6Zm3.98,2.69l2.39,16.14,1.97-.3c.55-.08,.96-.31,1.23-.68,.27-.37,.34-.97,.22-1.78l-1.74-11.75c-.12-.82-.36-1.36-.73-1.64-.37-.27-.83-.37-1.38-.28l-1.97,.3Z"/><path class="cls-1" d="M561.46,113.56l4.81-.73,.48,3.23-4.81,.73,.98,6.62,6.05-.92,.48,3.23-9.55,1.46-3.35-22.6,9.55-1.46,.48,3.23-6.05,.92,.93,6.3Z"/></g><g><path class="cls-1" d="M540.91,120.07l3.09-.47-.54-3.63-6,.91c1.52,1.05,2.64,2.08,3.45,3.19Z"/><polygon class="cls-1" points="567.8 112.25 568.34 115.88 582.45 113.76 589.04 158.17 495.11 172.48 488.52 128.07 499.68 126.23 499.14 122.6 484.41 124.99 492.07 176.65 593.15 161.25 585.49 109.59 567.8 112.25"/></g><g><path class="cls-1" d="M442.12,122.47c.45-1.23,1.05-3.97-.53-4.09-1.77-.14-2.78,3.78-2.78,3.78l-1.93,7.19,2.09-.23c1.12-1.37,2.97-6.17,3.15-6.66Z"/><path class="cls-1" d="M366.03,111.66c-7.74-.4-12.86,6.38-14.17,15.1-1.31,8.7,.52,17.69,.52,17.69,1.44,8.71,4.72,7.92,4.72,7.92,3.39-.5,4.01-5.93,4.01-5.93,.57-3.03,.39-11.63,.39-11.63,0,0-3.28-1.26-4.78-2.06-1.51-.8-1.69-3-1.44-4.53,.2-1.23,1.47-.6,2.62-.27,.91,.26,2.96,.8,2.96,.8,0,0-.19-3.59,.33-6.45,.52-2.86,2.61-5.13,5.24-4.92,2.63,.19,2.3,1.46,1.98,3.52-.26,1.62-1,7.24-1,7.24,9.46-1.92,8.79-8.77,8.79-8.77,0-3.2-2.42-7.32-10.16-7.71Z"/><path class="cls-1" d="M404.8,138.47c-.95-1.06-3.19-.5-4.26,1.03-1.12,1.6-1.28,5.72-1.28,5.72,2.63-.24,4.52-2.28,5.13-2.84,1.03-.96,1.35-2.85,.41-3.91Z"/><path class="cls-1" d="M455.7,144.28s-1.96-.98-1.75-3.01c.21-1.94,2.1-2.67,2.1-2.67,0,0-.31-.87-1.7-.87-2.68,0-4.42,4.96-4.82,7.13-.39,2.18-.34,6.97,2.89,7.36,3.24,.4,4.25-5.45,4.25-6.47s-.97-1.47-.97-1.47Z"/><path class="cls-1" d="M412.31,152c.3-.2,1.61,.6,1.61,.6,0,0,2.33,2.22,4.55-.3,2.22-2.53-1.61-8.04-1.61-8.04-.23,.59-4.56,7.74-4.56,7.74Z"/><path class="cls-1" d="M481.91,127.07c-.87-13.05-8.14-54.65-65.36-63.23l6-23.32,55.94,15.01-8.54-21.46,18.39-14.12-56.82-15.44-3.34-4.52-16.26,63.43s-80.5-6.84-86.66,64.1c-6.17,2.45-10.54,8.54-10.54,15.67v2.65c0,7.54,4.88,13.91,11.61,16.07,.88,5.16,3.44,16.23,9.67,20.53,8.26,5.72,21.37,8.58,34.23,10.01,16.42,1.82,40.58,1.21,40.58,1.21,0,0,28.85-1.05,39.17-2.63,9.21-1.43,20.34-6.15,24.97-11.65,3.3-3.93,5.06-12.51,5.8-17.13,7.38-1.72,12.91-8.4,12.91-16.42v-2.65c0-7.59-4.96-14.02-11.76-16.12Zm-114.59,19.06c-.45,4.89-4.42,12.11-10.85,12.21-6.43,.08-9.22-9.71-9.22-9.71-3.46-9.81-2.41-18.69-2.41-18.69,1.41-11.27,4.14-15.3,8.69-19.48,5.22-4.79,12.04-4.72,12.04-4.72,6.56-.19,10.41,2.51,10.41,2.51,6.57,4.29,5.95,11.08,5.95,11.08-.31,12.28-14.34,14.81-14.34,14.81,.81,6.73-.26,12.01-.26,12.01Zm94.68-.59c0,3.82-2.69,7.58-2.69,7.58-1.93,2.42-3.51,3.71-7.27,3.95-4,.25-5.78-2.62-5.78-2.62l-3.24,1.73s-1.92,1.16-4.66,1.42c-2.76,.27-4.17-1.96-4.17-1.96-1.44-1.56-2.75-6.39-2.75-6.39,0,0-1.12,1.14-2.86,2.66-1.74,1.53-7.71,5.89-13.55,5.67-2.98-.13-4.36-2.93-4.42-3.3-.07-.36-.1-.33-.1-.33-4.02,2.43-5.75,3.71-10.46,2.73-4.94-1.02-6.27-5.88-6.46-6.86-.21-.96-.26-.86-.26-.86,0,0-2.53,1.77-5.87,.37-3.35-1.4-3.69-6.98-3.71-7.48-.02-.52-.19-.6-.19-.6-.37-.2-.49,.23-.49,.23l-3.55,10.14s-.75,2.63-1.89,4.46c-1.23,1.97-3.26,.5-3.26,.5,0,0-1.63-.66-1.57-5.05,.07-4.38,2.33-16.1,3.12-17.43,0,0,.49-1.04,1.38-1.05,.79-.02,1.58,0,1.58,0,0,0,1.02-.04,1.05,1.05,.04,1.1,.04,5.89,.04,5.89,0,0,.3,.19,.42-.14,.14-.32,2.59-6.75,6.5-6.88,3.91-.14,2.23,4.62,2.13,5.45-.1,.84-.7,4.19,.29,5.08,0,0,.96,1.4,4.31-.13,0,0,1.58-9.61,9.31-10.41,0,0,5.93-.37,6.78,5.11,.86,5.49-5.18,9.29-5.18,9.29,0,0-2.33,1.59-4.69,2.06,0,0,.75,1.85,2.36,2.19,1.56,.33,5.88-.46,7.55-3.06,1.67-2.59,5.18-12,5.18-12,0,0,1.05-3.89,3.7-4.53,2.66-.62,3.38,.44,3.61,1.2,.24,.77,.17,1.23-.13,2.03-.3,.8-1.42,2.97-1.42,2.97,0,0-.32,.73-.05,1.35,.26,.64,1.8,3.16,2.33,4.19,0,0,1.44,3.1,1.7,4.79,0,0,5.15-4.72,6.1-5.41,0,0,.07-7.42,.49-9.02,0,0-4.49,1.1-5.96-.32,0,0-.93-.71-.6-2.04,0,0,.3-1.26,1.77-1.46,1.47-.19,5.6-.6,5.6-.6,.37-1.96,1.02-5.89,3.97-11.83,2.75-5.56,6.1-5.13,6.1-5.13,4.73,.6,4.46,7.22,4.46,7.22,.09,3.39-2.96,8.77-2.96,8.77l6.89-.56s1.22-.1,1.3,1.56c.1,1.67-.84,2-1.24,2.06-.26,.05-9.21,.73-9.21,.73-.6,1.27-4.78,6.39-4.78,6.39,0,0-.3,6.95-.26,8.91,.03,1.96,.75,3.75,2.98,4.08,2.23,.34,5.34-1.83,5.34-1.83-1.6-2.16-.52-7.51-.52-7.51,1.09-4.37,3.64-6.71,3.64-6.71,0,0,2.85-3.05,7.36-2.7,4.45,.36,6.13,6.22,6.13,6.22,0,0,2.38,.49,2.45,3.09,.09,2.57-1.7,3.07-1.7,3.07Z"/></g></g></g></g></svg>