<?xml version="1.0" encoding="UTF-8"?><svg id="Capa_2" xmlns="http://www.w3.org/2000/svg" viewBox="0 0 320.98 204.61"><defs><style>.cls-1{fill:#d31831;}</style></defs><g id="Capa_1-2"><g><g><g><path class="cls-1" d="M253.3,126.79c-3.86,0-5.84-6.78-5.84-16.19,0-17.88,7.06-45.09,21.65-45.09,2.16,0,4.71,.56,7.25,1.32-9.13,42.26-17.32,59.96-23.06,59.96Zm-211.98,9.32c-10.45,0-14.4-12.61-14.4-29.18,0-17.79,4.71-40.19,10.92-56.1,8.47,8.09,18.17,16.85,27.77,25.51-.19,28.61-8.85,59.77-24.29,59.77Zm262.24-31.16c-3.48,8.1-7.44,16-11.95,24.47l-.47-.09c.28-16.85,3.2-40.47,6.21-58.74-4.24-1.79-9.88-3.48-14.68-4.33-.85-9.88-11.58-17.79-23.53-17.79-21.18,0-32.66,24.94-35.58,54.5-3.39,8.09-7.34,16.1-11.86,24.57l-.28-.09c.09-19.39,4.05-47.53,7.44-65.23-4.33-4.33-20.61-12.24-25.04-12.43-9.6,11.67-19.3,37.93-27.11,64.2l-.38-.09c3.01-21.27,5.93-42.83,7.15-55.06-4.33-4.33-20.61-12.24-25.04-12.43-9.88,12.43-20.24,40.38-28.43,67.49l-.38-.09c2.92-16.75,5.46-37.37,6.49-46.12-4.42-4.42-22.59-12.43-27.49-12.61-3.2,5.37-7.06,11.77-10.35,16.85l-.38-.09c-1.69-13.37-5.74-24.94-13.37-34.45-6.4-7.91-13.37-11.77-19.58-11.77-8.66,0-16.1,7.44-19.3,22.03-5.55-5.37-13.18-8.47-15.91-8.47C7.06,60.43,0,87.44,0,111.16c0,30.5,11.77,55.54,38.59,55.54,28.9,0,47.63-33.7,49.98-70.03,4.8-6.21,8.85-11.58,13.08-17.79l.38,.09c-2.17,15.81-5.93,42.92-9.04,59.68,5.65,6.31,20.71,12.24,27.77,12.24,6.49-21.74,13.46-41.23,23.25-58.45l.38,.09c-2.54,16.85-4.99,37.75-6.49,56.85,5.55,5.84,18.92,11.3,26.07,11.3,7.91-25.04,16-47.91,27.2-68.43l.38,.09c-4.05,18.07-5.84,31.72-5.84,42.08,0,18.73,6.87,23.25,14.4,23.25,9.41,0,17.51-8.75,23.72-23.34h.38c2.82,15.44,10.07,23.34,19.58,23.34s17.88-8.38,23.91-24.66h.38c0,22.21,10.07,24.66,15.72,24.66,11.3,0,18.17-12.43,32.29-46.88-1.88-1.98-10.26-5.84-12.52-5.84Z"/><path class="cls-1" d="M316.35,93.29c-.09,.13-.24,.23-.45,.3-.21,.07-.49,.11-.84,.11h-.43c-.14,0-.26,0-.36,0-.1,0-.19,0-.26,0h-.09c0-.26,0-.53,0-.81v-.94c.08,0,.16,0,.26-.01,.1,0,.2,0,.31-.01,.11,0,.2,0,.3-.01,.09,0,.16,0,.22,0,.38,0,.67,.02,.88,.07,.21,.05,.36,.13,.46,.26,.1,.12,.14,.32,.14,.58,0,.19-.05,.36-.14,.49Zm4.63,.46c0,3.4-2.33,5.47-5.86,5.47s-5.86-2.07-5.86-5.47,2.33-5.47,5.86-5.47,5.86,2.07,5.86,5.47Zm-2.67,3.11c-.05-.13-.11-.3-.17-.51-.06-.21-.13-.44-.2-.68-.1-.3-.21-.53-.34-.69-.13-.16-.28-.29-.47-.37-.18-.08-.41-.14-.68-.18-.05,0-.11-.01-.16-.02v-.02c.21-.03,.41-.07,.57-.12,.35-.11,.61-.29,.78-.54,.17-.25,.26-.61,.26-1.08,0-.54-.1-.94-.29-1.22-.19-.28-.46-.47-.8-.56-.34-.09-.75-.14-1.24-.14h-3.08c0,.47,0,.94,.01,1.44s.01,1.07,.01,1.75c0,.62,0,1.16-.01,1.62,0,.46-.01,.9-.01,1.33h1.5c-.02-.3-.03-.65-.04-1.07,0-.3-.01-.62-.02-.96,.08,0,.15,0,.24,0,.1,0,.22,0,.34,0s.25,0,.37,0c.12,0,.25,0,.37,0,.24,0,.43,.03,.57,.09,.15,.06,.26,.15,.36,.28,.09,.13,.17,.32,.24,.56,.07,.24,.15,.54,.24,.9,.02,.04,.03,.08,.05,.12,.02,.04,.04,.06,.08,.08,.03,.02,.09,.03,.16,.03h1.36Z"/></g><g><path class="cls-1" d="M126.08,18.89c-4.59,0-7.26-3.15-7.26-7.43s2.91-7.51,7.26-7.51c3.38,0,6.1,1.74,6.56,5.08h-3.45c-.44-1.33-1.54-2.14-3.11-2.14-2.37,0-3.98,1.95-3.98,4.57,0,2.76,1.78,4.48,3.98,4.48,1.72,0,2.95-.83,3.34-2.05h3.47c-.44,3.26-3.38,5-6.81,5Z"/><path class="cls-1" d="M151.77,15.42h-5.27l-1.1,3.26h-3.42l5.25-14.53h3.84l5.23,14.53h-3.42l-1.1-3.26Zm-.87-2.62l-1.68-4.98h-.19l-1.66,4.98h3.53Z"/><path class="cls-1" d="M169.69,7.1v3.34h6.06v2.78h-6.06v5.46h-3.22V4.15h10.25v2.95h-7.04Z"/><path class="cls-1" d="M197.52,15.9v2.78h-10.25V4.15h10.04v2.78h-6.91v3.01h5.87v2.72h-5.87v3.24h7.12Zm-2.16-15.9l-1.89,3.01h-2.35l1.66-3.01h2.57Z"/></g></g><g><path class="cls-1" d="M45.24,199.33c0,3.57-2.38,5.28-5.53,5.28s-5.59-1.71-5.59-5.28v-8.05h2.55v7.98c0,1.99,1.28,3.06,3.04,3.06s2.98-1.07,2.98-3.06v-7.98h2.55v8.05Z"/><path class="cls-1" d="M62.42,191.28v13.14h-2.61l-6.09-8.79h-.15v8.79h-2.49v-13.14h2.61l6.09,8.84h.16v-8.84h2.49Z"/><path class="cls-1" d="M67.72,197.85c0-3.85,2.92-6.76,6.92-6.76s6.92,2.91,6.92,6.76-2.9,6.76-6.92,6.76-6.92-2.89-6.92-6.76Zm11.24,0c0-2.55-1.84-4.47-4.31-4.47s-4.31,1.92-4.31,4.47,1.84,4.47,4.33,4.47,4.29-1.91,4.29-4.47Z"/><path class="cls-1" d="M105.01,195.45c0,2.53-1.78,4.19-4.6,4.19h-2.88v4.79h-2.48v-13.14h5.43c2.78,0,4.52,1.71,4.52,4.17Zm-2.61,0c0-1.22-.81-2.01-2.19-2.01h-2.69v4.04h2.63c1.49,0,2.24-.81,2.24-2.03Z"/><path class="cls-1" d="M116.96,201.25h-5.07l-1.1,3.17h-2.73l4.83-13.14h3.07l4.82,13.14h-2.73l-1.1-3.17Zm-.7-2.05l-1.76-5.07h-.15l-1.76,5.07h3.67Z"/><path class="cls-1" d="M132.92,204.42l-2.82-5.13h-2.2v5.13h-2.49v-13.14h5.36c2.71,0,4.37,1.56,4.37,3.87,0,1.78-1.01,3.1-2.61,3.7l3.11,5.58h-2.71Zm-5.03-7.23h2.57c1.32,0,2.11-.81,2.11-1.91,0-1.16-.79-1.9-2.11-1.9h-2.57v3.81Z"/><path class="cls-1" d="M148.76,201.25h-5.07l-1.1,3.17h-2.73l4.83-13.14h3.07l4.82,13.14h-2.73l-1.1-3.17Zm-.7-2.05l-1.76-5.07h-.15l-1.76,5.07h3.67Z"/><path class="cls-1" d="M171.8,204.61c-4.14,0-6.65-2.84-6.65-6.7s2.67-6.82,6.65-6.82c3.06,0,5.49,1.58,5.96,4.49h-2.75c-.43-1.35-1.57-2.2-3.21-2.2-2.42,0-4.04,1.97-4.04,4.52s1.74,4.41,4.04,4.41c1.76,0,3-.85,3.42-2.12h2.75c-.44,2.82-3.04,4.41-6.17,4.41Z"/><path class="cls-1" d="M190.44,201.25h-5.07l-1.1,3.17h-2.73l4.83-13.14h3.07l4.82,13.14h-2.73l-1.1-3.17Zm-.7-2.05l-1.76-5.07h-.15l-1.76,5.07h3.67Z"/><path class="cls-1" d="M210.21,197.85c0,4.02-2.46,6.57-6.59,6.57h-4.74v-13.14h4.74c4.14,0,6.59,2.5,6.59,6.57Zm-2.61-.08c0-2.53-1.24-4.28-4.08-4.28h-2.09v8.71h2.09c2.84,0,4.08-1.88,4.08-4.43Z"/><path class="cls-1" d="M222.7,201.25h-5.07l-1.1,3.17h-2.73l4.83-13.14h3.07l4.82,13.14h-2.73l-1.1-3.17Zm-.7-2.05l-1.76-5.07h-.15l-1.76,5.07h3.67Z"/><path class="cls-1" d="M250.54,199.33c0,3.57-2.38,5.28-5.53,5.28s-5.59-1.71-5.59-5.28v-8.05h2.55v7.98c0,1.99,1.28,3.06,3.04,3.06s2.98-1.07,2.98-3.06v-7.98h2.55v8.05Z"/><path class="cls-1" d="M267.71,191.28v13.14h-2.61l-6.09-8.79h-.15v8.79h-2.49v-13.14h2.61l6.09,8.84h.16v-8.84h2.49Z"/><path class="cls-1" d="M273.01,197.85c0-3.85,2.92-6.76,6.92-6.76s6.92,2.91,6.92,6.76-2.9,6.76-6.92,6.76-6.92-2.89-6.92-6.76Zm11.24,0c0-2.55-1.84-4.47-4.31-4.47s-4.31,1.92-4.31,4.47,1.84,4.47,4.33,4.47,4.29-1.91,4.29-4.47Z"/></g></g></g></svg>