<?xml version="1.0" encoding="UTF-8"?><svg id="Capa_2" xmlns="http://www.w3.org/2000/svg" viewBox="0 0 224.75 148.9"><defs><style>.cls-1{fill:#fff;}</style></defs><g id="Capa_1-2"><g><path class="cls-1" d="M88.88,13.3c-3.23,0-5.12-2.22-5.12-5.23s2.05-5.29,5.12-5.29c2.38,0,4.3,1.23,4.62,3.58h-2.43c-.31-.94-1.08-1.51-2.19-1.51-1.67,0-2.81,1.37-2.81,3.22,0,1.94,1.26,3.16,2.81,3.16,1.21,0,2.08-.58,2.35-1.45h2.44c-.31,2.29-2.38,3.52-4.79,3.52"/><path class="cls-1" d="M106.68,10.86h-3.71l-.77,2.29h-2.41l3.7-10.23h2.7l3.68,10.23h-2.41l-.77-2.29Zm-.61-1.84l-1.18-3.51h-.13l-1.17,3.51h2.48Z"/><polygon class="cls-1" points="118.99 5 118.99 7.35 123.26 7.35 123.26 9.31 118.99 9.31 118.99 13.15 116.73 13.15 116.73 2.92 123.95 2.92 123.95 5 118.99 5"/><path class="cls-1" d="M138.3,11.2v1.96h-7.22V2.92h7.07v1.96h-4.87v2.12h4.14v1.91h-4.14v2.28h5.01Zm-1.52-11.2l-1.33,2.12h-1.65l1.17-2.12h1.81Z"/><path class="cls-1" d="M177.95,88.92c-2.71,0-4.1-4.76-4.1-11.37,0-12.56,4.96-31.67,15.21-31.67,1.52,0,3.31,.4,5.09,.93-6.41,29.69-12.17,42.12-16.2,42.12m-148.92,6.55c-7.34,0-10.12-8.86-10.12-20.5,0-12.5,3.31-28.24,7.67-39.41,5.95,5.69,12.76,11.84,19.51,17.92-.13,20.1-6.22,41.99-17.06,41.99m184.23-21.89c-2.45,5.69-5.22,11.24-8.4,17.19l-.33-.07c.2-11.84,2.25-28.43,4.36-41.26-2.98-1.26-6.94-2.45-10.32-3.04-.59-6.94-8.13-12.5-16.53-12.5-14.88,0-22.95,17.52-25,38.29-2.38,5.69-5.16,11.31-8.33,17.26l-.2-.07c.07-13.62,2.84-33.39,5.22-45.83-3.04-3.04-14.48-8.6-17.59-8.73-6.74,8.2-13.56,26.65-19.04,45.1l-.26-.07c2.12-14.94,4.17-30.09,5.03-38.68-3.04-3.04-14.48-8.6-17.59-8.73-6.94,8.73-14.22,28.37-19.97,47.41l-.26-.07c2.05-11.77,3.84-26.25,4.56-32.4-3.11-3.11-15.87-8.73-19.31-8.86-2.25,3.77-4.96,8.27-7.27,11.84l-.26-.07c-1.19-9.39-4.03-17.52-9.39-24.2-4.5-5.55-9.39-8.27-13.75-8.27-6.08,0-11.31,5.22-13.56,15.47-3.9-3.77-9.26-5.95-11.18-5.95C4.96,42.3,0,61.28,0,77.94c0,21.42,8.27,39.01,27.11,39.01,20.3,0,33.46-23.67,35.11-49.2,3.37-4.36,6.22-8.13,9.19-12.5l.26,.07c-1.52,11.11-4.17,30.15-6.35,41.92,3.97,4.43,14.55,8.6,19.51,8.6,4.56-15.28,9.46-28.96,16.33-41.06l.26,.07c-1.79,11.84-3.5,26.52-4.56,39.94,3.9,4.1,13.29,7.94,18.32,7.94,5.55-17.59,11.24-33.66,19.11-48.07l.26,.07c-2.84,12.7-4.1,22.28-4.1,29.56,0,13.16,4.83,16.33,10.12,16.33,6.61,0,12.3-6.15,16.66-16.4h.26c1.98,10.84,7.08,16.4,13.75,16.4s12.56-5.89,16.8-17.33h.26c0,15.61,7.08,17.33,11.04,17.33,7.93,0,12.76-8.73,22.68-32.93-1.32-1.39-7.21-4.1-8.79-4.1"/><g><path class="cls-1" d="M31.79,136.62v7.49c0,1.54-.44,2.73-1.31,3.55-.87,.82-2.03,1.24-3.47,1.24s-2.6-.41-3.49-1.24c-.89-.82-1.33-2.01-1.33-3.55v-7.49h1.82v7.4c0,1.03,.28,1.81,.83,2.37,.55,.55,1.28,.83,2.18,.83s1.62-.27,2.15-.82c.54-.55,.8-1.34,.8-2.38v-7.4h1.82Z"/><path class="cls-1" d="M42.82,136.62h1.78v12.1h-1.92l-6.09-8.97h-.12v8.97h-1.78v-12.1h1.92l6.09,8.99h.12v-8.99Z"/><path class="cls-1" d="M57.42,147.12c-1.15,1.19-2.59,1.78-4.33,1.78s-3.19-.59-4.34-1.77c-1.15-1.18-1.73-2.67-1.73-4.45s.58-3.26,1.73-4.44c1.15-1.19,2.6-1.78,4.34-1.78s3.17,.59,4.32,1.78c1.15,1.19,1.73,2.67,1.73,4.44s-.57,3.26-1.72,4.44Zm-7.35-1.2c.8,.87,1.81,1.31,3.02,1.31s2.21-.43,3.01-1.31c.8-.87,1.19-1.95,1.19-3.24s-.4-2.37-1.2-3.24c-.8-.87-1.8-1.3-3-1.3s-2.22,.43-3.02,1.3c-.8,.87-1.2,1.95-1.2,3.24s.4,2.37,1.2,3.24Z"/><path class="cls-1" d="M70.87,136.62c1.19,0,2.13,.34,2.84,1.02,.7,.68,1.05,1.57,1.05,2.68s-.36,2.05-1.07,2.73c-.72,.68-1.68,1.02-2.9,1.02h-2.75v4.65h-1.76v-12.1h4.6Zm-.26,5.84c.74,0,1.31-.19,1.7-.57,.4-.38,.6-.9,.6-1.56s-.2-1.17-.61-1.55c-.4-.37-.94-.56-1.61-.56h-2.66v4.24h2.58Z"/><path class="cls-1" d="M83.87,148.73l-1.07-3.16h-4.7l-1.07,3.16h-1.95l4.27-12.1h2.23l4.25,12.1h-1.95Zm-5.27-4.7h3.7l-1.78-5.27h-.14l-1.78,5.27Z"/><path class="cls-1" d="M96.39,148.73h-1.97l-2.8-4.94h-2.25v4.94h-1.78v-12.1h4.48c1.16,0,2.09,.32,2.77,.95,.69,.63,1.03,1.48,1.03,2.52,0,.84-.22,1.55-.67,2.13-.44,.58-1.06,.99-1.84,1.23l3.03,5.27Zm-7.02-10.53v4.01h2.45c.69,0,1.24-.18,1.63-.55,.4-.37,.6-.86,.6-1.47s-.2-1.11-.6-1.46c-.4-.35-.94-.53-1.63-.53h-2.45Z"/><path class="cls-1" d="M106.55,148.73l-1.07-3.16h-4.7l-1.07,3.16h-1.95l4.27-12.1h2.23l4.25,12.1h-1.95Zm-5.27-4.7h3.7l-1.78-5.27h-.14l-1.78,5.27Z"/><path class="cls-1" d="M125.83,144.98c-.22,1.2-.82,2.15-1.8,2.86-.98,.71-2.16,1.06-3.54,1.06-1.76,0-3.18-.58-4.24-1.73-1.06-1.15-1.59-2.63-1.59-4.44s.54-3.32,1.62-4.5c1.08-1.18,2.48-1.77,4.21-1.77,1.35,0,2.49,.35,3.43,1.06,.94,.71,1.51,1.69,1.72,2.95h-1.95c-.21-.71-.59-1.28-1.14-1.7-.55-.42-1.23-.63-2.04-.63-1.19,0-2.15,.44-2.89,1.32-.74,.88-1.11,1.97-1.11,3.28s.37,2.39,1.11,3.23c.74,.84,1.7,1.26,2.86,1.26,.84,0,1.56-.21,2.16-.61,.6-.41,1.01-.95,1.23-1.63h1.95Z"/><path class="cls-1" d="M135.41,148.73l-1.07-3.16h-4.7l-1.07,3.16h-1.95l4.27-12.1h2.23l4.25,12.1h-1.95Zm-5.27-4.7h3.7l-1.78-5.27h-.14l-1.78,5.27Z"/><path class="cls-1" d="M143.05,136.62c1.87,0,3.3,.54,4.31,1.63,1.01,1.08,1.51,2.56,1.51,4.43s-.5,3.31-1.51,4.41c-1.01,1.09-2.45,1.64-4.31,1.64h-3.93v-12.1h3.93Zm-.09,10.46c1.38,0,2.41-.4,3.07-1.21,.66-.81,.99-1.89,.99-3.25s-.33-2.4-.99-3.18c-.66-.78-1.68-1.18-3.08-1.18h-2.02v8.82h2.02Z"/><path class="cls-1" d="M158.52,148.73l-1.07-3.16h-4.7l-1.07,3.16h-1.95l4.27-12.1h2.23l4.25,12.1h-1.95Zm-5.27-4.7h3.7l-1.78-5.27h-.14l-1.78,5.27Z"/><path class="cls-1" d="M176.57,136.62v7.49c0,1.54-.44,2.73-1.31,3.55-.87,.82-2.03,1.24-3.47,1.24s-2.6-.41-3.49-1.24c-.89-.82-1.33-2.01-1.33-3.55v-7.49h1.82v7.4c0,1.03,.28,1.81,.83,2.37,.55,.55,1.28,.83,2.18,.83s1.62-.27,2.15-.82c.54-.55,.8-1.34,.8-2.38v-7.4h1.82Z"/><path class="cls-1" d="M187.6,136.62h1.78v12.1h-1.92l-6.09-8.97h-.12v8.97h-1.78v-12.1h1.92l6.09,8.99h.12v-8.99Z"/><path class="cls-1" d="M202.2,147.12c-1.15,1.19-2.59,1.78-4.33,1.78s-3.19-.59-4.34-1.77c-1.15-1.18-1.73-2.67-1.73-4.45s.58-3.26,1.73-4.44c1.15-1.19,2.6-1.78,4.34-1.78s3.17,.59,4.32,1.78c1.15,1.19,1.73,2.67,1.73,4.44s-.57,3.26-1.72,4.44Zm-7.35-1.2c.8,.87,1.81,1.31,3.02,1.31s2.21-.43,3.01-1.31c.8-.87,1.19-1.95,1.19-3.24s-.4-2.37-1.2-3.24c-.8-.87-1.8-1.3-3-1.3s-2.22,.43-3.02,1.3c-.8,.87-1.2,1.95-1.2,3.24s.4,2.37,1.2,3.24Z"/></g><path class="cls-1" d="M221.51,65.21c-.06,.09-.17,.16-.31,.21-.14,.05-.34,.07-.59,.07h-.3c-.1,0-.18,0-.25,0-.07,0-.13,0-.18,0h-.06c0-.18,0-.37,0-.57v-.66c.06,0,.11,0,.18,0,.07,0,.14,0,.22,0,.07,0,.14,0,.21,0,.06,0,.12,0,.15,0,.26,0,.47,.02,.62,.05,.15,.03,.25,.09,.32,.18,.07,.09,.1,.22,.1,.41,0,.14-.03,.25-.1,.34m3.25,.32c0,2.38-1.63,3.84-4.11,3.84s-4.11-1.45-4.11-3.84,1.63-3.84,4.11-3.84,4.11,1.45,4.11,3.84m-1.87,2.18c-.04-.09-.08-.21-.12-.36-.04-.15-.09-.31-.14-.48-.07-.21-.15-.37-.24-.48-.09-.11-.2-.2-.33-.26-.13-.06-.29-.1-.48-.12-.03,0-.08,0-.12-.01v-.02c.15-.02,.29-.05,.4-.08,.24-.07,.42-.2,.54-.38,.12-.18,.18-.43,.18-.76,0-.37-.07-.66-.2-.86s-.32-.33-.56-.39c-.24-.06-.53-.1-.87-.1h-2.16c0,.33,0,.66,0,1.01,0,.34,0,.75,0,1.23,0,.44,0,.82,0,1.13,0,.32,0,.63,0,.93h1.05c-.01-.21-.02-.46-.03-.75,0-.21,0-.44-.01-.67,.05,0,.11,0,.17,0,.07,0,.15,0,.24,0s.17,0,.26,0c.09,0,.17,0,.26,0,.17,0,.3,.02,.4,.06,.1,.04,.18,.11,.25,.2,.06,.09,.12,.22,.17,.39,.05,.17,.1,.38,.17,.63,.01,.03,.02,.06,.04,.08,.01,.02,.03,.04,.06,.06,.02,.01,.06,.02,.11,.02h.95Z"/></g></g></svg>