<?xml version="1.0" encoding="UTF-8"?><svg id="Capa_2" xmlns="http://www.w3.org/2000/svg" viewBox="0 0 398.88 299.86"><defs><style>.cls-1{fill:none;}.cls-2{fill:#fff;}.cls-3{fill:#ca222a;}</style></defs><g id="Capa_1-2"><g><rect class="cls-1" y=".06" width="398.88" height="299.74"/><g><g><path d="M261.66,221.73l-.07-22.24,3.85-.58-.1,27.3-6.25,.94-8.13-26.06,4.23-.64,6.47,21.28Z"/><path d="M272.51,209.35l5.75-.86,.57,3.81-5.75,.86,1.17,7.81,7.24-1.09,.57,3.81-11.43,1.72-4.01-26.68,11.43-1.72,.57,3.81-7.24,1.09,1.12,7.43Z"/><path d="M292.67,222.1c-.08-.17-.15-.33-.23-.47-.07-.14-.15-.33-.22-.55-.07-.22-.14-.51-.21-.86-.07-.35-.14-.8-.22-1.33l-.63-4.19c-.19-1.24-.54-2.09-1.04-2.53-.51-.44-1.25-.59-2.21-.45l-1.45,.22,1.63,10.86-4.19,.63-4.01-26.68,6.33-.95c2.19-.33,3.84-.06,4.97,.81,1.13,.87,1.85,2.33,2.16,4.39l.31,2.1c.41,2.74-.23,4.68-1.93,5.82,1.13,.27,1.97,.87,2.51,1.79,.54,.92,.92,2.08,1.13,3.47l.62,4.12c.1,.66,.21,1.23,.34,1.72,.12,.49,.33,.97,.61,1.45l-4.27,.64Zm-8.01-22.18l1.23,8.19,1.64-.25c.79-.12,1.37-.41,1.76-.89,.38-.47,.49-1.24,.33-2.31l-.4-2.63c-.15-.97-.42-1.64-.83-2.02-.41-.38-.98-.52-1.72-.4l-2.02,.3Z"/><path d="M294.45,194.55l6.63-1c2.11-.32,3.76,0,4.96,.97,1.2,.96,1.96,2.52,2.28,4.68l2.03,13.49c.32,2.16,.06,3.88-.8,5.15-.86,1.27-2.35,2.07-4.45,2.38l-6.63,1-4.01-26.68Zm4.76,3.18l2.86,19.06,2.36-.35c.66-.1,1.15-.37,1.48-.81,.32-.44,.41-1.14,.27-2.11l-2.09-13.87c-.14-.97-.44-1.61-.88-1.93-.44-.32-.99-.44-1.65-.34l-2.36,.35Z"/><path d="M326.77,216.97l-4.23,.64-1.45-4.73-5.15,.77v4.95s-3.85,.58-3.85,.58l.26-27.32,6.14-.92,8.28,26.04Zm-10.84-7.02l4.04-.61-4.05-13.19v13.8Z"/><path d="M323.95,190.12l6.63-1c2.11-.32,3.76,0,4.96,.97,1.2,.96,1.96,2.52,2.28,4.68l2.03,13.49c.32,2.16,.06,3.88-.8,5.15-.86,1.27-2.35,2.07-4.45,2.38l-6.63,1-4.01-26.68Zm4.76,3.18l2.86,19.06,2.36-.36c.66-.1,1.15-.37,1.48-.81,.32-.44,.41-1.14,.27-2.11l-2.09-13.87c-.14-.97-.44-1.61-.88-1.93-.44-.32-.99-.44-1.65-.34l-2.36,.36Z"/></g><g><path d="M261.79,185.12l-2.35,.35,.33,7.34-3.25,.49-.33-7.34-1.77,.27-.13-2.86,1.77-.27-.31-6.71-1.8,.27-.13-2.86,1.81-.27-.26-5.91,3.25-.49,.26,5.91,2.35-.35-.26-5.91,3.25-.49,.26,5.91,1.84-.28,.13,2.86-1.84,.28,.31,6.71,1.84-.28,.13,2.86-1.84,.28,.33,7.34-3.25,.49-.33-7.34Zm-2.48-2.51l2.35-.35-.31-6.71-2.35,.35,.31,6.71Z"/><path d="M277.15,175.24l5.45-.82,.54,3.61-5.45,.82,1.11,7.4,6.86-1.03,.54,3.61-10.83,1.63-3.8-25.28,10.83-1.63,.54,3.61-6.86,1.03,1.06,7.04Z"/><path d="M284.55,169.44c-.31-2.05-.06-3.69,.75-4.93,.81-1.24,2.19-2.01,4.14-2.3,1.95-.29,3.5,.04,4.63,.98,1.14,.95,1.86,2.45,2.17,4.49l.15,.97-3.76,.56-.18-1.23c-.14-.91-.41-1.53-.81-1.85-.41-.32-.92-.43-1.55-.34-.63,.09-1.09,.35-1.38,.78-.29,.43-.37,1.1-.23,2.01,.13,.87,.44,1.6,.92,2.21,.48,.6,1.06,1.16,1.73,1.66,.67,.5,1.38,1,2.13,1.49,.75,.49,1.47,1.04,2.15,1.65,.68,.61,1.28,1.33,1.8,2.17,.52,.83,.87,1.85,1.05,3.06,.31,2.05,.04,3.69-.79,4.94-.83,1.25-2.23,2.02-4.18,2.31-1.95,.29-3.51-.03-4.67-.98-1.16-.95-1.9-2.44-2.21-4.49l-.26-1.73,3.76-.56,.3,1.99c.14,.91,.42,1.52,.85,1.83,.43,.31,.95,.41,1.58,.32,.63-.09,1.1-.35,1.42-.77,.32-.42,.41-1.08,.27-2-.13-.87-.44-1.6-.92-2.21-.49-.6-1.06-1.16-1.73-1.66-.67-.5-1.37-1-2.13-1.49-.75-.49-1.47-1.04-2.15-1.65-.68-.61-1.28-1.33-1.8-2.17-.52-.83-.87-1.85-1.05-3.05Z"/><path d="M301.8,160.64l6.28-.94c2-.3,3.56,0,4.7,.92,1.14,.91,1.86,2.39,2.16,4.44l1.92,12.78c.31,2.05,.05,3.67-.76,4.88-.82,1.21-2.22,1.96-4.22,2.26l-6.28,.94-3.8-25.28Zm4.52,3.01l2.71,18.06,2.24-.34c.63-.09,1.09-.35,1.4-.76,.31-.42,.39-1.08,.25-1.99l-1.98-13.15c-.14-.91-.41-1.53-.83-1.83-.42-.31-.94-.41-1.56-.32l-2.24,.34Z"/><path d="M321.39,168.59l5.45-.82,.54,3.61-5.45,.82,1.11,7.4,6.86-1.03,.54,3.61-10.83,1.63-3.8-25.28,10.83-1.63,.54,3.61-6.86,1.03,1.06,7.04Z"/></g><g><path d="M298.08,175.88l3.51-.53-.61-4.06-6.81,1.02c1.72,1.18,2.99,2.32,3.91,3.56Z"/><polygon points="328.58 167.13 329.19 171.19 345.2 168.82 352.67 218.5 246.13 234.52 238.67 184.83 251.32 182.77 250.71 178.71 233.99 181.38 242.68 239.19 357.34 221.95 348.65 164.15 328.58 167.13"/></g><path class="cls-3" d="M231.17,183.72c-.99-14.6-9.23-61.14-74.13-70.74l6.81-26.09,63.45,16.79-9.69-24.01,20.85-15.8-64.45-17.27-3.79-5.05-18.44,70.97s-91.3-7.65-98.29,71.71c-6.99,2.75-11.95,9.55-11.95,17.53v2.96c0,8.44,5.54,15.57,13.17,17.98,.99,5.78,3.91,18.15,10.96,22.97,9.37,6.39,24.24,9.6,38.83,11.2,18.63,2.04,46.03,1.35,46.03,1.35,0,0,32.72-1.17,44.43-2.94,10.45-1.6,23.07-6.88,28.32-13.03,3.74-4.4,5.74-14,6.58-19.16,8.37-1.92,14.64-9.4,14.64-18.37v-2.96c0-8.49-5.63-15.68-13.34-18.04Z"/><g><path class="cls-2" d="M112.75,160.91s-4.36-3.03-11.81-2.81c0,0-7.73-.07-13.66,5.28-5.16,4.69-8.26,9.18-9.85,21.8,0,0-1.19,9.94,2.73,20.92,0,0,3.17,10.96,10.46,10.87,7.29-.11,11.8-8.19,12.3-13.66,0,0,1.22-5.91,.3-13.44,0,0,15.92-2.82,16.27-16.56,0,0,.7-7.59-6.75-12.39Zm-9.73,22.26s.83-6.29,1.13-8.1c.36-2.31,.74-3.72-2.24-3.94-2.98-.24-5.35,2.3-5.94,5.5-.6,3.2-.38,7.21-.38,7.21,0,0-2.32-.6-3.36-.9-1.3-.37-2.74-1.07-2.97,.3-.28,1.71-.07,4.17,1.64,5.06,1.71,.9,5.43,2.31,5.43,2.31,0,0,.21,9.62-.44,13.01,0,0-.7,6.08-4.55,6.63,0,0-3.72,.89-5.35-8.86,0,0-2.08-10.05-.6-19.79,1.49-9.76,7.29-17.34,16.07-16.89,8.78,.44,11.52,5.05,11.52,8.63,0,0,.75,7.67-9.97,9.82Z"/><path class="cls-2" d="M209.47,195.76s-1.91-6.56-6.95-6.96c-5.11-.4-8.34,3.02-8.34,3.02,0,0-2.9,2.62-4.13,7.51,0,0-1.21,5.98,.6,8.4,0,0-3.54,2.43-6.06,2.05-2.52-.37-3.34-2.38-3.38-4.57-.04-2.2,.3-9.97,.3-9.97,0,0,4.75-5.72,5.43-7.15,0,0,10.15-.77,10.45-.82,.45-.07,1.53-.44,1.41-2.31-.1-1.85-1.48-1.75-1.48-1.75l-7.82,.63s3.46-6.02,3.36-9.82c0,0,.3-7.41-5.06-8.08,0,0-3.79-.48-6.92,5.74-3.35,6.64-4.09,11.05-4.51,13.24,0,0-4.69,.45-6.36,.67-1.67,.22-2.01,1.63-2.01,1.63-.38,1.49,.68,2.28,.68,2.28,1.67,1.59,6.76,.36,6.76,.36-.48,1.79-.56,10.09-.56,10.09-1.08,.78-6.91,6.06-6.91,6.06-.3-1.89-1.93-5.36-1.93-5.36-.6-1.15-2.34-3.97-2.64-4.69-.3-.7,.06-1.51,.06-1.51,0,0,1.27-2.43,1.61-3.32,.33-.89,.41-1.41,.14-2.27-.26-.85-1.08-2.04-4.09-1.34-3.01,.71-4.2,5.06-4.2,5.06,0,0-3.98,10.53-5.88,13.43-1.89,2.9-6.79,3.79-8.56,3.42-1.82-.38-2.67-2.44-2.67-2.44,2.67-.53,5.31-2.31,5.31-2.31,0,0,6.85-4.25,5.88-10.39-.97-6.14-7.69-5.72-7.69-5.72-8.77,.89-10.56,11.64-10.56,11.64-3.79,1.71-4.89,.14-4.89,.14-1.11-1-.44-4.75-.32-5.69,.1-.93,2.01-6.25-2.42-6.1-4.43,.14-7.22,7.33-7.37,7.69-.14,.37-.48,.16-.48,.16,0,0,0-5.36-.04-6.59-.04-1.22-1.19-1.18-1.19-1.18,0,0-.89-.02-1.79,0-1.01,.01-1.57,1.18-1.57,1.18-.89,1.48-3.46,14.59-3.53,19.5-.06,4.91,1.79,5.65,1.79,5.65,0,0,2.3,1.65,3.69-.55,1.29-2.05,2.15-4.99,2.15-4.99l4.03-11.34s.14-.48,.55-.26c0,0,.2,.1,.22,.67,.02,.56,.41,6.8,4.21,8.37,3.79,1.57,6.66-.41,6.66-.41,0,0,.06-.11,.3,.96,.22,1.09,1.73,6.53,7.33,7.67,5.33,1.09,7.31-.34,11.86-3.06,0,0,.04-.02,.12,.37,.06,.41,1.63,3.56,5.01,3.7,6.63,.25,13.4-4.63,15.37-6.34,1.97-1.7,3.24-2.98,3.24-2.98,0,0,1.49,5.4,3.12,7.15,0,0,1.6,2.49,4.73,2.19,3.11-.3,5.28-1.59,5.28-1.59l3.68-1.93s2.01,3.21,6.55,2.93c4.27-.26,6.06-1.71,8.25-4.42,0,0,3.06-4.21,3.06-8.48,0,0,2.03-.56,1.93-3.44-.09-2.91-2.78-3.46-2.78-3.46Zm-25.45-19.27s1.15-4.39,3.16-4.23c1.79,.12,1.11,3.2,.6,4.57-.2,.54-2.31,5.92-3.58,7.45l-2.37,.26,2.19-8.05Zm-43.41,19.39c1.21-1.71,3.75-2.35,4.83-1.16,1.07,1.19,.7,3.3-.46,4.38-.69,.63-2.84,2.9-5.82,3.17,0,0,.18-4.61,1.45-6.4Zm20.35,14.32c-2.52,2.82-5.17,.34-5.17,.34,0,0-1.49-.9-1.83-.68,0,0,4.91-8,5.17-8.66,0,0,4.35,6.17,1.83,9Zm38.5-.09c-3.66-.44-3.72-5.8-3.28-8.24,.45-2.42,2.43-7.97,5.47-7.97,1.58,0,1.93,.98,1.93,.98,0,0-2.15,.81-2.39,2.98-.24,2.27,1.98,3.37,1.98,3.37,0,0,1.1,.5,1.1,1.64s-1.14,7.69-4.82,7.24Z"/></g></g><polyline class="cls-1" points="398.88 182.74 398.69 117.11 378 132.68 357.35 116.63 357.34 183.35"/><polyline class="cls-1" points="0 117.23 .19 182.86 20.88 167.29 41.53 183.35 41.54 116.63"/><polyline class="cls-1" points="232.2 0 166.57 .19 182.14 20.88 166.08 41.53 232.8 41.54"/><polyline class="cls-1" points="166.68 299.86 232.32 299.67 216.74 278.98 232.8 258.33 166.08 258.32"/></g></g></svg>