<?xml version="1.0" encoding="UTF-8"?><svg id="Capa_2" xmlns="http://www.w3.org/2000/svg" viewBox="0 0 210.21 144.3"><defs><style>.cls-1{fill:#fff;}.cls-2{fill:#d3060e;}</style></defs><g id="Capa_1-2"><g><g><path class="cls-1" d="M146.53,119.94l-.05-14.81,2.56-.39-.07,18.17-4.16,.63-5.41-17.35,2.82-.42,4.31,14.17Z"/><path class="cls-1" d="M153.74,111.7l3.83-.58,.38,2.54-3.83,.58,.78,5.2,4.82-.73,.38,2.54-7.61,1.14-2.67-17.76,7.61-1.14,.38,2.54-4.82,.73,.74,4.95Z"/><path class="cls-1" d="M167.16,120.19c-.04-.12-.11-.22-.15-.32-.11-.19-.2-.46-.27-.94-.06-.22-.11-.53-.16-.89l-.42-2.79c-.25-1.65-.87-2.18-2.17-1.98l-.96,.14,1.09,7.23-2.79,.42-2.67-17.76,4.21-.63c2.92-.44,4.34,.72,4.75,3.46l.21,1.4c.27,1.82-.16,3.11-1.29,3.88,1.51,.37,2.14,1.65,2.42,3.5l.41,2.74c.13,.89,.25,1.47,.63,2.11l-2.84,.43Zm-5.34-14.77l.82,5.46,1.09-.16c1.04-.16,1.61-.71,1.39-2.13l-.26-1.75c-.2-1.29-.71-1.76-1.7-1.61l-1.35,.2Z"/><path class="cls-1" d="M168.35,101.85l4.41-.66c2.82-.42,4.39,.9,4.82,3.76l1.35,8.98c.43,2.87-.69,4.59-3.5,5.02l-4.41,.66-2.67-17.76Zm3.17,2.12l1.91,12.69,1.57-.24c.89-.13,1.36-.65,1.16-1.94l-1.39-9.24c-.19-1.29-.79-1.65-1.68-1.51l-1.57,.24Z"/><path class="cls-1" d="M189.87,116.78l-2.82,.42-.97-3.15-3.43,.52v3.3s-2.56,.38-2.56,.38l.17-18.19,4.08-.61,5.51,17.33Zm-7.21-4.68l2.69-.4-2.7-8.78v9.18Z"/><path class="cls-1" d="M187.98,98.89l4.41-.66c2.82-.42,4.39,.9,4.82,3.76l1.35,8.98c.43,2.87-.69,4.6-3.5,5.02l-4.41,.66-2.67-17.76Zm3.17,2.12l1.91,12.69,1.57-.24c.89-.13,1.36-.65,1.16-1.94l-1.39-9.24c-.19-1.29-.79-1.65-1.68-1.51l-1.57,.24Z"/></g><g><path class="cls-1" d="M146.61,95.58l-1.56,.23,.22,4.88-2.16,.33-.22-4.88-1.18,.18-.09-1.9,1.18-.18-.2-4.47-1.2,.18-.09-1.9,1.2-.18-.17-3.93,2.16-.33,.17,3.93,1.56-.24-.17-3.93,2.16-.32,.17,3.93,1.23-.18,.09,1.9-1.23,.18,.2,4.47,1.23-.18,.09,1.9-1.23,.18,.22,4.88-2.16,.32-.22-4.88Zm-1.65-1.67l1.56-.23-.21-4.47-1.56,.23,.2,4.47Z"/><path class="cls-1" d="M156.83,89l3.63-.55,.36,2.4-3.63,.55,.74,4.93,4.57-.69,.36,2.4-7.21,1.08-2.53-16.82,7.21-1.08,.36,2.4-4.57,.69,.7,4.69Z"/><path class="cls-1" d="M165.02,80.32c2.59-.39,4.12,.93,4.53,3.65l.08,.53-2.5,.38-.11-.69c-.18-1.23-.73-1.59-1.57-1.46s-1.26,.63-1.07,1.86c.17,1.15,.88,1.91,1.76,2.56,.45,.35,.91,.68,1.43,.99,.98,.66,1.94,1.45,2.62,2.55,.35,.56,.58,1.24,.7,2.03,.41,2.72-.71,4.43-3.31,4.82-2.6,.39-4.17-.92-4.58-3.64l-.16-1.03,2.5-.38,.18,1.2c.18,1.23,.77,1.55,1.61,1.43,.84-.13,1.31-.61,1.12-1.84-.17-1.15-.88-1.91-1.77-2.58-.44-.33-.91-.65-1.4-.99-1.01-.63-1.96-1.43-2.64-2.53-.35-.56-.58-1.24-.7-2.03-.41-2.72,.66-4.43,3.26-4.82Z"/><path class="cls-1" d="M173.24,79.29l4.18-.63c2.67-.4,4.16,.85,4.57,3.56l1.28,8.51c.41,2.72-.65,4.35-3.32,4.75l-4.18,.63-2.53-16.82Zm3,2.01l1.81,12.02,1.49-.22c.84-.13,1.28-.61,1.1-1.84l-1.31-8.75c-.18-1.22-.75-1.56-1.59-1.43l-1.49,.22Z"/><path class="cls-1" d="M186.28,84.58l3.63-.55,.36,2.4-3.63,.55,.74,4.93,4.57-.69,.36,2.4-7.21,1.08-2.53-16.82,7.21-1.08,.36,2.4-4.57,.69,.7,4.69Z"/></g><g><path class="cls-1" d="M170.77,89.42l2.34-.35-.41-2.7-4.53,.68c1.14,.78,1.99,1.55,2.6,2.37Z"/><polygon class="cls-1" points="191.07 83.6 191.47 86.3 202.13 84.72 207.1 117.79 136.19 128.45 131.22 95.38 139.64 94.01 139.23 91.3 128.11 93.09 133.89 131.56 210.21 120.09 204.43 81.61 191.07 83.6"/></g><path class="cls-1" d="M126.22,94.64c-.66-9.72-6.15-40.7-49.35-47.09l4.53-17.37,42.23,11.18-6.45-15.98,13.88-10.52L88.18,3.36l-2.52-3.36-12.27,47.24S12.61,42.15,7.96,94.98c-4.66,1.83-7.96,6.36-7.96,11.67v1.97c0,5.62,3.69,10.36,8.77,11.97,.66,3.84,2.6,12.08,7.3,15.29,6.23,4.26,16.13,6.39,25.85,7.46,12.4,1.36,30.64,.9,30.64,.9,0,0,21.78-.78,29.57-1.96,6.95-1.07,15.36-4.58,18.85-8.67,2.49-2.93,3.82-9.32,4.38-12.75,5.57-1.28,9.75-6.26,9.75-12.23v-1.97c0-5.65-3.75-10.44-8.88-12.01Z"/><g><path class="cls-2" d="M46.24,80.61s-2.9-2.02-7.86-1.87c0,0-5.15-.05-9.09,3.52-3.44,3.12-5.5,6.11-6.56,14.51,0,0-.79,6.62,1.82,13.92,0,0,2.11,7.29,6.96,7.23,4.85-.07,7.85-5.45,8.19-9.09,0,0,.81-3.94,.2-8.95,0,0,10.59-1.88,10.83-11.03,0,0,.46-5.05-4.49-8.25Zm-6.47,14.82s.56-4.19,.75-5.39c.24-1.54,.49-2.48-1.49-2.62-1.98-.16-3.56,1.53-3.96,3.66-.4,2.13-.25,4.8-.25,4.8,0,0-1.54-.4-2.23-.6-.87-.25-1.83-.71-1.98,.2-.19,1.14-.05,2.78,1.09,3.37,1.14,.6,3.61,1.54,3.61,1.54,0,0,.14,6.41-.29,8.66,0,0-.47,4.04-3.03,4.42,0,0-2.47,.59-3.56-5.9,0,0-1.39-6.69-.4-13.17,.99-6.49,4.85-11.54,10.7-11.24,5.84,.29,7.67,3.36,7.67,5.74,0,0,.5,5.1-6.64,6.53Z"/><path class="cls-2" d="M110.62,103.81s-1.27-4.36-4.63-4.63c-3.4-.27-5.55,2.01-5.55,2.01,0,0-1.93,1.74-2.75,5,0,0-.81,3.98,.4,5.59,0,0-2.35,1.61-4.03,1.36-1.68-.25-2.22-1.58-2.25-3.04-.03-1.46,.2-6.64,.2-6.64,0,0,3.16-3.81,3.61-4.76,0,0,6.76-.51,6.96-.55,.3-.04,1.02-.29,.94-1.53-.07-1.23-.98-1.16-.98-1.16l-5.2,.42s2.3-4.01,2.23-6.53c0,0,.2-4.93-3.37-5.38,0,0-2.53-.32-4.6,3.82-2.23,4.42-2.72,7.35-3,8.81,0,0-3.12,.3-4.23,.45-1.11,.15-1.34,1.09-1.34,1.09-.25,.99,.45,1.52,.45,1.52,1.11,1.06,4.5,.24,4.5,.24-.32,1.19-.37,6.72-.37,6.72-.72,.52-4.6,4.03-4.6,4.03-.2-1.26-1.28-3.57-1.28-3.57-.4-.77-1.56-2.64-1.76-3.12-.2-.47,.04-1.01,.04-1.01,0,0,.85-1.61,1.07-2.21,.22-.59,.28-.94,.09-1.51-.17-.57-.72-1.36-2.72-.9-2,.47-2.79,3.37-2.79,3.37,0,0-2.65,7.01-3.91,8.94-1.26,1.93-4.52,2.53-5.7,2.28-1.21-.25-1.78-1.63-1.78-1.63,1.78-.35,3.54-1.53,3.54-1.53,0,0,4.56-2.83,3.91-6.92-.65-4.09-5.12-3.81-5.12-3.81-5.84,.59-7.03,7.75-7.03,7.75-2.53,1.14-3.25,.09-3.25,.09-.74-.66-.29-3.16-.22-3.78,.07-.62,1.34-4.16-1.61-4.06-2.95,.09-4.8,4.88-4.91,5.12-.09,.25-.32,.11-.32,.11,0,0,0-3.57-.03-4.39-.03-.81-.79-.79-.79-.79,0,0-.59-.02-1.19,0-.67,0-1.04,.79-1.04,.79-.59,.99-2.3,9.71-2.35,12.98-.04,3.27,1.19,3.76,1.19,3.76,0,0,1.53,1.1,2.46-.37,.86-1.36,1.43-3.32,1.43-3.32l2.68-7.55s.09-.32,.37-.17c0,0,.13,.06,.15,.45,.01,.37,.27,4.53,2.8,5.57,2.53,1.04,4.43-.27,4.43-.27,0,0,.04-.07,.2,.64,.15,.73,1.15,4.35,4.88,5.11,3.55,.72,4.86-.23,7.89-2.04,0,0,.03-.02,.08,.25,.04,.28,1.08,2.37,3.33,2.46,4.42,.17,8.92-3.08,10.23-4.22,1.31-1.13,2.16-1.98,2.16-1.98,0,0,.99,3.6,2.08,4.76,0,0,1.06,1.66,3.15,1.46,2.07-.2,3.52-1.06,3.52-1.06l2.45-1.29s1.34,2.13,4.36,1.95c2.84-.18,4.03-1.14,5.49-2.94,0,0,2.03-2.8,2.03-5.65,0,0,1.35-.37,1.28-2.29-.06-1.94-1.85-2.3-1.85-2.3Zm-16.94-12.83s.77-2.92,2.1-2.82c1.19,.08,.74,2.13,.4,3.04-.13,.36-1.54,3.94-2.38,4.96l-1.58,.17,1.46-5.36Zm-28.9,12.91c.8-1.14,2.5-1.56,3.21-.77,.71,.79,.47,2.2-.31,2.91-.46,.42-1.89,1.93-3.87,2.11,0,0,.12-3.07,.97-4.26Zm13.54,9.53c-1.68,1.88-3.44,.23-3.44,.23,0,0-.99-.6-1.22-.45,0,0,3.27-5.33,3.44-5.77,0,0,2.9,4.11,1.22,5.99Zm25.63-.06c-2.44-.29-2.47-3.86-2.18-5.48,.3-1.61,1.62-5.31,3.64-5.31,1.05,0,1.28,.65,1.28,.65,0,0-1.43,.54-1.59,1.98-.16,1.51,1.32,2.24,1.32,2.24,0,0,.73,.34,.73,1.09s-.76,5.12-3.21,4.82Z"/></g></g></g></svg>