<?xml version="1.0" encoding="UTF-8"?><svg id="Capa_2" xmlns="http://www.w3.org/2000/svg" viewBox="0 0 41.59 35.78"><defs><style>.cls-1{fill:#fff;}</style></defs><g id="Capa_1-2"><g><path class="cls-1" d="M41.47,9.66c-10.36,5.02-20.63,10-30.91,14.98,.3,.33,.59,.61,.84,.92,2.08,2.64,1.76,6.39-.73,8.63-2.42,2.18-6.24,2.13-8.57-.19-1.83-1.82-2.39-4.05-1.57-6.51,.81-2.44,2.58-3.86,5.13-4.22,1.11-.16,2.24-.15,3.31-.58,1.78-.71,3.21-1.78,3.83-3.67,.16-.48,.22-1,.27-1.5,.02-.25,.1-.36,.32-.45,6.78-2.81,13.56-5.62,20.34-8.42,.6-.25,1.21-.52,1.85-.63,1.53-.26,2.95,.23,4.33,.85,.5,.22,.97,.5,1.55,.8ZM2.41,29.51c.01,2.24,1.86,4.07,4.1,4.05,2.23-.02,4.07-1.87,4.05-4.11-.01-2.23-1.88-4.06-4.11-4.05-2.24,.02-4.06,1.86-4.04,4.1Zm14.89-11.72c0,.67,.59,1.25,1.26,1.25,.67,0,1.25-.59,1.25-1.26,0-.67-.58-1.26-1.26-1.25-.67,0-1.26,.59-1.25,1.26Z"/><path class="cls-1" d="M10.35,11.02c2.26,1.05,4.4,2.04,6.6,3.07-1.5,.66-2.94,1.28-4.37,1.9-.28-.37-.52-.77-.83-1.1-1.46-1.55-3.3-2.28-5.41-2.3-2.89-.03-5.37-1.89-6.13-4.67C-.71,4.51,1.42,.94,4.86,.16c3.53-.8,6.97,1.43,7.61,4.97,.39,2.14-.2,4.01-1.71,5.59-.1,.1-.23,.17-.4,.3ZM2.22,6.33c.02,2.25,1.87,4.06,4.11,4.03,2.23-.02,4.07-1.89,4.04-4.12-.03-2.23-1.89-4.06-4.12-4.04-2.24,.02-4.05,1.88-4.03,4.12Z"/><path class="cls-1" d="M41.59,25.53c-1.75,1.07-3.46,1.99-5.49,1.82-.65-.05-1.29-.31-1.91-.55-4.45-1.75-8.9-3.52-13.35-5.28-.13-.05-.26-.11-.44-.19,1.96-.95,3.86-1.88,5.77-2.79,.12-.06,.32,0,.46,.06,3.78,1.74,7.55,3.49,11.32,5.24,1.18,.55,2.37,1.1,3.64,1.69Z"/></g></g></svg>